<svg xmlns="http://www.w3.org/2000/svg" width="28" height="28" fill="none"><path fill="#FF003A" d="M10.558 25h6.884c1.562 0 2.399-.928 2.399-2.421v-5.07h4.53c.915 0 1.629-.565 1.629-1.425 0-.532-.268-.928-.67-1.335L15.379 4.69c-.435-.441-.882-.69-1.383-.69-.491 0-.949.249-1.373.69L2.669 14.75c-.435.43-.669.803-.669 1.335 0 .86.714 1.426 1.618 1.426h4.541v5.069c0 1.493.837 2.421 2.399 2.421Zm.178-1.754c-.424 0-.714-.294-.714-.713v-6.347c0-.283-.1-.385-.368-.385H4.5c-.078 0-.122-.034-.122-.09 0-.046.022-.08.067-.136l9.316-9.391c.09-.09.167-.113.235-.113a.29.29 0 0 1 .234.113l9.316 9.39c.056.058.067.091.067.137 0 .056-.033.09-.122.09h-5.144c-.268 0-.368.102-.368.385v6.347a.694.694 0 0 1-.714.713h-6.528Z"/></svg>