<svg width="7879" height="473" viewBox="0 0 7879 473" fill="none" xmlns="http://www.w3.org/2000/svg" preserveAspectRatio="none"><path d="M3172.08 0.470309L0 471.473L0.258406 472.748L3172.34 1.74567L3172.08 0.470309Z" fill="url('#paint0_linear_171_2142')" fill-opacity="0.5"/><path d="M3219.98 0.305822L246.18 471.503L246.455 472.776L3220.25 1.5786L3219.98 0.305822Z" fill="url('#paint1_linear_171_2142')" fill-opacity="0.5"/><path d="M3267.94 0.352943L492.41 471.73L492.704 473L3268.23 1.62261L3267.94 0.352943Z" fill="url('#paint2_linear_171_2142')" fill-opacity="0.5"/><path d="M3315.91 0.601658L738.51 471.439L738.825 472.705L3316.23 1.86757L3315.91 0.601658Z" fill="url('#paint3_linear_171_2142')" fill-opacity="0.5"/><path d="M3363.85 0.436497L984.749 471.608L985.09 472.87L3364.19 1.69761L3363.85 0.436497Z" fill="url('#paint4_linear_171_2142')" fill-opacity="0.5"/><path d="M3411.74 0.34451L1230.94 471.691L1231.31 472.946L3412.11 1.59954L3411.74 0.34451Z" fill="url('#paint5_linear_171_2142')" fill-opacity="0.5"/><path d="M3459.77 0.358477L1477.13 471.526L1477.54 472.773L3460.17 1.60573L3459.77 0.358477Z" fill="url('#paint6_linear_171_2142')" fill-opacity="0.5"/><path d="M3507.49 0.617424L1723.13 471.536L1723.57 472.773L3507.94 1.85432L3507.49 0.617424Z" fill="url('#paint7_linear_171_2142')" fill-opacity="0.5"/><path d="M3555.32 0.450261L1969.28 471.575L1969.77 472.798L3555.82 1.67304L3555.32 0.450261Z" fill="url('#paint8_linear_171_2142')" fill-opacity="0.5"/><path d="M3603.22 0.474554L2215.49 471.706L2216.05 472.909L3603.78 1.67764L3603.22 0.474554Z" fill="url('#paint9_linear_171_2142')" fill-opacity="0.5"/><path d="M3651.41 0.514417L2461.76 471.686L2462.39 472.861L3652.05 1.68914L3651.41 0.514417Z" fill="url('#paint10_linear_171_2142')" fill-opacity="0.5"/><path d="M3699.23 0.459877L2707.82 471.651L2708.55 472.783L3699.96 1.59147L3699.23 0.459877Z" fill="url('#paint11_linear_171_2142')" fill-opacity="0.5"/><path d="M3746.82 0.364006L2953.83 471.687L2954.7 472.75L3747.68 1.4271L3746.82 0.364006Z" fill="url('#paint12_linear_171_2142')" fill-opacity="0.5"/><path d="M3795.03 0.41249L3200.18 471.756L3201.21 472.706L3796.06 1.36229L3795.03 0.41249Z" fill="url('#paint13_linear_171_2142')" fill-opacity="0.5"/><path d="M3842.53 0.530556L3446.07 471.894L3447.3 472.65L3843.76 1.28669L3842.53 0.530556Z" fill="url('#paint14_linear_171_2142')" fill-opacity="0.5"/><path d="M3890.66 0.619264L3692.33 471.997L3693.75 472.435L3892.09 1.05807L3890.66 0.619264Z" fill="url('#paint15_linear_171_2142')" fill-opacity="0.5"/><path d="M3939.82 0.794434H3938.31V472.166H3939.82V0.794434Z" fill="url('#paint16_linear_171_2142')" fill-opacity="0.5"/><path d="M3987.6 0.459911L3986.18 0.898438L4184.52 472.255L4185.94 471.817L3987.6 0.459911Z" fill="url('#paint17_linear_171_2142')" fill-opacity="0.5"/><path d="M4035.55 0.394L4034.32 1.15039L4430.92 472.455L4432.14 471.699L4035.55 0.394Z" fill="url('#paint18_linear_171_2142')" fill-opacity="0.5"/><path d="M4083.31 0.429597L4082.28 1.37939L4677.13 472.653L4678.16 471.704L4083.31 0.429597Z" fill="url('#paint19_linear_171_2142')" fill-opacity="0.5"/><path d="M4131.2 0.27125L4130.34 1.33447L4923.42 472.574L4924.28 471.511L4131.2 0.27125Z" fill="url('#paint20_linear_171_2142')" fill-opacity="0.5"/><path d="M4179.29 0.0910583L4178.56 1.22266L5169.97 472.511L5170.7 471.38L4179.29 0.0910583Z" fill="url('#paint21_linear_171_2142')" fill-opacity="0.5"/><path d="M4227.25 0.383511L4226.61 1.55811L5416.14 472.842L5416.78 471.667L4227.25 0.383511Z" fill="url('#paint22_linear_171_2142')" fill-opacity="0.5"/><path d="M4274.94 0.0144929L4274.38 1.21777L5662.19 472.605L5662.74 471.402L4274.94 0.0144929Z" fill="url('#paint23_linear_171_2142')" fill-opacity="0.5"/><path d="M4323.01 0.27283L4322.51 1.49561L5908.56 472.764L5909.05 471.542L4323.01 0.27283Z" fill="url('#paint24_linear_171_2142')" fill-opacity="0.5"/><path d="M4370.76 0.0150178L4370.32 1.25195L6154.62 472.654L6155.07 471.417L4370.76 0.0150178Z" fill="url('#paint25_linear_171_2142')" fill-opacity="0.5"/><path d="M4418.48 -0.000185963L4418.08 1.24707L6400.71 472.414L6401.11 471.167L4418.48 -0.000185963Z" fill="url('#paint26_linear_171_2142')" fill-opacity="0.5"/><path d="M4466.41 0.156105L4466.04 1.41113L6646.84 472.565L6647.21 471.31L4466.41 0.156105Z" fill="url('#paint27_linear_171_2142')" fill-opacity="0.5"/><path d="M4514.35 0.0186447L4514 1.27979L6893.06 472.623L6893.4 471.362L4514.35 0.0186447Z" fill="url('#paint28_linear_171_2142')" fill-opacity="0.5"/><path d="M4562.7 0.351896L4562.38 1.61768L7139.52 472.907L7139.83 471.641L4562.7 0.351896Z" fill="url('#paint29_linear_171_2142')" fill-opacity="0.5"/><path d="M4610.16 0.188343L4609.87 1.45801L7385.39 472.593L7385.69 471.324L4610.16 0.188343Z" fill="url('#paint30_linear_171_2142')" fill-opacity="0.5"/><path d="M4658.24 0.189612L4657.97 1.4624L7631.73 472.834L7632.01 471.561L4658.24 0.189612Z" fill="url('#paint31_linear_171_2142')" fill-opacity="0.5"/><path d="M4706.34 1.17438e-05L4706.08 1.27539L7878.12 472.728L7878.38 471.453L4706.34 1.17438e-05Z" fill="url('#paint32_linear_171_2142')" fill-opacity="0.5"/><path d="M4744.34 1.7793H3133.84V3.0737H4744.34V1.7793Z" fill="url('#paint33_linear_171_2142')" fill-opacity="0.5"/><path d="M4764.66 4.67773H3113.47V5.97214H4764.66V4.67773Z" fill="url('#paint34_linear_171_2142')" fill-opacity="0.5"/><path d="M4786.06 7.73291H3092.07V9.02732H4786.06V7.73291Z" fill="url('#paint35_linear_171_2142')" fill-opacity="0.5"/><path d="M4808.67 10.9946H3069.58V12.289H4808.67V10.9946Z" fill="url('#paint36_linear_171_2142')" fill-opacity="0.5"/><path d="M4832.37 14.4126H3045.76V15.707H4832.37V14.4126Z" fill="url('#paint37_linear_171_2142')" fill-opacity="0.5"/><path d="M4857.52 17.9849H3020.67V19.2793H4857.52V17.9849Z" fill="url('#paint38_linear_171_2142')" fill-opacity="0.5"/><path d="M4884.06 21.8159H2994.12V23.1103H4884.06V21.8159Z" fill="url('#paint39_linear_171_2142')" fill-opacity="0.5"/><path d="M4912.18 25.855H2965.95V27.1494H4912.18V25.855Z" fill="url('#paint40_linear_171_2142')" fill-opacity="0.5"/><path d="M4942.04 30.1523H2936.08V31.4468H4942.04V30.1523Z" fill="url('#paint41_linear_171_2142')" fill-opacity="0.5"/><path d="M4973.85 34.7085H2904.34V36.0029H4973.85V34.7085Z" fill="url('#paint42_linear_171_2142')" fill-opacity="0.5"/><path d="M5007.64 39.5752H2870.49V40.8696H5007.64V39.5752Z" fill="url('#paint43_linear_171_2142')" fill-opacity="0.5"/><path d="M5043.86 44.7539H2834.39V46.0483H5043.86V44.7539Z" fill="url('#paint44_linear_171_2142')" fill-opacity="0.5"/><path d="M5082.43 50.293H2795.7V51.5874H5082.43V50.293Z" fill="url('#paint45_linear_171_2142')" fill-opacity="0.5"/><path d="M5123.96 56.2476H2754.28V57.542H5123.96V56.2476Z" fill="url('#paint46_linear_171_2142')" fill-opacity="0.5"/><path d="M5168.46 62.6157H2709.67V63.9101H5168.46V62.6157Z" fill="url('#paint47_linear_171_2142')" fill-opacity="0.5"/><path d="M5216.53 69.5537H2661.6V70.8481H5216.53V69.5537Z" fill="url('#paint48_linear_171_2142')" fill-opacity="0.5"/><path d="M5268.58 77.0093H2609.67V78.3037H5268.58V77.0093Z" fill="url('#paint49_linear_171_2142')" fill-opacity="0.5"/><path d="M5324.93 85.0864H2553.26V86.3808H5324.93V85.0864Z" fill="url('#paint50_linear_171_2142')" fill-opacity="0.5"/><path d="M5386.29 93.8887H2491.89V95.1831H5386.29V93.8887Z" fill="url('#paint51_linear_171_2142')" fill-opacity="0.5"/><path d="M5453.4 103.519H2424.84V104.813H5453.4V103.519Z" fill="url('#paint52_linear_171_2142')" fill-opacity="0.5"/><path d="M5526.98 114.082H2351.27V115.376H5526.98V114.082Z" fill="url('#paint53_linear_171_2142')" fill-opacity="0.5"/><path d="M5608.06 125.732H2270.13V127.026H5608.06V125.732Z" fill="url('#paint54_linear_171_2142')" fill-opacity="0.5"/><path d="M5697.84 138.624H2180.29V139.918H5697.84V138.624Z" fill="url('#paint55_linear_171_2142')" fill-opacity="0.5"/><path d="M5797.9 152.966H2080.23V154.26H5797.9V152.966Z" fill="url('#paint56_linear_171_2142')" fill-opacity="0.5"/><path d="M5910.05 169.068H1968.14V170.363H5910.05V169.068Z" fill="url('#paint57_linear_171_2142')" fill-opacity="0.5"/><path d="M6036.53 187.189H1841.6V188.484H6036.53V187.189Z" fill="url('#paint58_linear_171_2142')" fill-opacity="0.5"/><path d="M6180.42 207.848H1697.77V209.143H6180.42V207.848Z" fill="url('#paint59_linear_171_2142')" fill-opacity="0.5"/><path d="M6345.53 231.562H1532.72V232.856H6345.53V231.562Z" fill="url('#paint60_linear_171_2142')" fill-opacity="0.5"/><path d="M6536.83 259.003H1341.42V260.297H6536.83V259.003Z" fill="url('#paint61_linear_171_2142')" fill-opacity="0.5"/><path d="M6761.13 291.208H1117.06V292.502H6761.13V291.208Z" fill="url('#paint62_linear_171_2142')" fill-opacity="0.5"/><path d="M7027.93 329.471H850.318V330.765H7027.93V329.471Z" fill="url('#paint63_linear_171_2142')" fill-opacity="0.5"/><path d="M7350.36 375.758H527.832V377.053H7350.36V375.758Z" fill="url('#paint64_linear_171_2142')" fill-opacity="0.5"/><path d="M7747.94 432.816H130.195V434.11H7747.94V432.816Z" fill="url('#paint65_linear_171_2142')" fill-opacity="0.5"/><defs><linearGradient id="paint0_linear_171_2142" x1="8372.3" y1="-770.711" x2="8371.57" y2="-775.59" gradientUnits="userSpaceOnUse"><stop stop-color="#94F9FF"/><stop offset="1" stop-color="#6AEDFF"/></linearGradient><linearGradient id="paint1_linear_171_2142" x1="8095.17" y1="-771.196" x2="8094.4" y2="-776.071" gradientUnits="userSpaceOnUse"><stop stop-color="#94F9FF"/><stop offset="1" stop-color="#6AEDFF"/></linearGradient><linearGradient id="paint2_linear_171_2142" x1="7818.11" y1="-771.447" x2="7817.28" y2="-776.316" gradientUnits="userSpaceOnUse"><stop stop-color="#94F9FF"/><stop offset="1" stop-color="#6AEDFF"/></linearGradient><linearGradient id="paint3_linear_171_2142" x1="7541.31" y1="-770.317" x2="7540.42" y2="-775.179" gradientUnits="userSpaceOnUse"><stop stop-color="#94F9FF"/><stop offset="1" stop-color="#6AEDFF"/></linearGradient><linearGradient id="paint4_linear_171_2142" x1="7264.19" y1="-771.033" x2="7263.22" y2="-775.886" gradientUnits="userSpaceOnUse"><stop stop-color="#94F9FF"/><stop offset="1" stop-color="#6AEDFF"/></linearGradient><linearGradient id="paint5_linear_171_2142" x1="6987.03" y1="-771.416" x2="6985.98" y2="-776.258" gradientUnits="userSpaceOnUse"><stop stop-color="#94F9FF"/><stop offset="1" stop-color="#6AEDFF"/></linearGradient><linearGradient id="paint6_linear_171_2142" x1="6710.23" y1="-771.114" x2="6709.07" y2="-775.941" gradientUnits="userSpaceOnUse"><stop stop-color="#94F9FF"/><stop offset="1" stop-color="#6AEDFF"/></linearGradient><linearGradient id="paint7_linear_171_2142" x1="6432.95" y1="-770.454" x2="6431.68" y2="-775.261" gradientUnits="userSpaceOnUse"><stop stop-color="#94F9FF"/><stop offset="1" stop-color="#6AEDFF"/></linearGradient><linearGradient id="paint8_linear_171_2142" x1="6155.71" y1="-770.971" x2="6154.29" y2="-775.749" gradientUnits="userSpaceOnUse"><stop stop-color="#94F9FF"/><stop offset="1" stop-color="#6AEDFF"/></linearGradient><linearGradient id="paint9_linear_171_2142" x1="5878.55" y1="-771.136" x2="5876.94" y2="-775.874" gradientUnits="userSpaceOnUse"><stop stop-color="#94F9FF"/><stop offset="1" stop-color="#6AEDFF"/></linearGradient><linearGradient id="paint10_linear_171_2142" x1="5602.1" y1="-771.018" x2="5600.25" y2="-775.697" gradientUnits="userSpaceOnUse"><stop stop-color="#94F9FF"/><stop offset="1" stop-color="#6AEDFF"/></linearGradient><linearGradient id="paint11_linear_171_2142" x1="5325" y1="-771.137" x2="5322.81" y2="-775.72" gradientUnits="userSpaceOnUse"><stop stop-color="#94F9FF"/><stop offset="1" stop-color="#6AEDFF"/></linearGradient><linearGradient id="paint12_linear_171_2142" x1="5047.4" y1="-771.498" x2="5044.77" y2="-775.915" gradientUnits="userSpaceOnUse"><stop stop-color="#94F9FF"/><stop offset="1" stop-color="#6AEDFF"/></linearGradient><linearGradient id="paint13_linear_171_2142" x1="4770.93" y1="-771.568" x2="4767.67" y2="-775.675" gradientUnits="userSpaceOnUse"><stop stop-color="#94F9FF"/><stop offset="1" stop-color="#6AEDFF"/></linearGradient><linearGradient id="paint14_linear_171_2142" x1="4493.35" y1="-771.624" x2="4489.2" y2="-775.098" gradientUnits="userSpaceOnUse"><stop stop-color="#94F9FF"/><stop offset="1" stop-color="#6AEDFF"/></linearGradient><linearGradient id="paint15_linear_171_2142" x1="4216.84" y1="-771.793" x2="4211.65" y2="-773.957" gradientUnits="userSpaceOnUse"><stop stop-color="#94F9FF"/><stop offset="1" stop-color="#6AEDFF"/></linearGradient><linearGradient id="paint16_linear_171_2142" x1="3942.3" y1="347.983" x2="3937.19" y2="347.969" gradientUnits="userSpaceOnUse"><stop stop-color="#94F9FF"/><stop offset="1" stop-color="#6AEDFF"/></linearGradient><linearGradient id="paint17_linear_171_2142" x1="4136.02" y1="346.92" x2="4131.4" y2="348.85" gradientUnits="userSpaceOnUse"><stop stop-color="#94F9FF"/><stop offset="1" stop-color="#6AEDFF"/></linearGradient><linearGradient id="paint18_linear_171_2142" x1="4329.67" y1="346.294" x2="4325.98" y2="349.391" gradientUnits="userSpaceOnUse"><stop stop-color="#94F9FF"/><stop offset="1" stop-color="#6AEDFF"/></linearGradient><linearGradient id="paint19_linear_171_2142" x1="4523.13" y1="345.99" x2="4520.22" y2="349.649" gradientUnits="userSpaceOnUse"><stop stop-color="#94F9FF"/><stop offset="1" stop-color="#6AEDFF"/></linearGradient><linearGradient id="paint20_linear_171_2142" x1="4716.76" y1="345.621" x2="4714.41" y2="349.555" gradientUnits="userSpaceOnUse"><stop stop-color="#94F9FF"/><stop offset="1" stop-color="#6AEDFF"/></linearGradient><linearGradient id="paint21_linear_171_2142" x1="4910.72" y1="345.364" x2="4908.77" y2="349.446" gradientUnits="userSpaceOnUse"><stop stop-color="#94F9FF"/><stop offset="1" stop-color="#6AEDFF"/></linearGradient><linearGradient id="paint22_linear_171_2142" x1="5104.44" y1="345.583" x2="5102.78" y2="349.75" gradientUnits="userSpaceOnUse"><stop stop-color="#94F9FF"/><stop offset="1" stop-color="#6AEDFF"/></linearGradient><linearGradient id="paint23_linear_171_2142" x1="5298.04" y1="345.243" x2="5296.6" y2="349.463" gradientUnits="userSpaceOnUse"><stop stop-color="#94F9FF"/><stop offset="1" stop-color="#6AEDFF"/></linearGradient><linearGradient id="paint24_linear_171_2142" x1="5492.03" y1="345.382" x2="5490.76" y2="349.638" gradientUnits="userSpaceOnUse"><stop stop-color="#94F9FF"/><stop offset="1" stop-color="#6AEDFF"/></linearGradient><linearGradient id="paint25_linear_171_2142" x1="5685.73" y1="345.199" x2="5684.59" y2="349.48" gradientUnits="userSpaceOnUse"><stop stop-color="#94F9FF"/><stop offset="1" stop-color="#6AEDFF"/></linearGradient><linearGradient id="paint26_linear_171_2142" x1="5879.46" y1="344.994" x2="5878.43" y2="349.293" gradientUnits="userSpaceOnUse"><stop stop-color="#94F9FF"/><stop offset="1" stop-color="#6AEDFF"/></linearGradient><linearGradient id="paint27_linear_171_2142" x1="6073.29" y1="345.128" x2="6072.35" y2="349.44" gradientUnits="userSpaceOnUse"><stop stop-color="#94F9FF"/><stop offset="1" stop-color="#6AEDFF"/></linearGradient><linearGradient id="paint28_linear_171_2142" x1="6267.2" y1="345.12" x2="6266.34" y2="349.442" gradientUnits="userSpaceOnUse"><stop stop-color="#94F9FF"/><stop offset="1" stop-color="#6AEDFF"/></linearGradient><linearGradient id="paint29_linear_171_2142" x1="6461.41" y1="345.405" x2="6460.62" y2="349.735" gradientUnits="userSpaceOnUse"><stop stop-color="#94F9FF"/><stop offset="1" stop-color="#6AEDFF"/></linearGradient><linearGradient id="paint30_linear_171_2142" x1="6654.96" y1="345.122" x2="6654.22" y2="349.459" gradientUnits="userSpaceOnUse"><stop stop-color="#94F9FF"/><stop offset="1" stop-color="#6AEDFF"/></linearGradient><linearGradient id="paint31_linear_171_2142" x1="6849.02" y1="345.292" x2="6848.33" y2="349.634" gradientUnits="userSpaceOnUse"><stop stop-color="#94F9FF"/><stop offset="1" stop-color="#6AEDFF"/></linearGradient><linearGradient id="paint32_linear_171_2142" x1="7043.13" y1="345.159" x2="7042.49" y2="349.505" gradientUnits="userSpaceOnUse"><stop stop-color="#94F9FF"/><stop offset="1" stop-color="#6AEDFF"/></linearGradient><linearGradient id="paint33_linear_171_2142" x1="7384.46" y1="2.73269" x2="7384.45" y2="-2.18126" gradientUnits="userSpaceOnUse"><stop stop-color="#94F9FF"/><stop offset="1" stop-color="#6AEDFF"/></linearGradient><linearGradient id="paint34_linear_171_2142" x1="7471.47" y1="5.63113" x2="7471.47" y2="0.717179" gradientUnits="userSpaceOnUse"><stop stop-color="#94F9FF"/><stop offset="1" stop-color="#6AEDFF"/></linearGradient><linearGradient id="paint35_linear_171_2142" x1="7563.05" y1="8.68631" x2="7563.04" y2="3.77235" gradientUnits="userSpaceOnUse"><stop stop-color="#94F9FF"/><stop offset="1" stop-color="#6AEDFF"/></linearGradient><linearGradient id="paint36_linear_171_2142" x1="7659.59" y1="11.948" x2="7659.59" y2="7.03407" gradientUnits="userSpaceOnUse"><stop stop-color="#94F9FF"/><stop offset="1" stop-color="#6AEDFF"/></linearGradient><linearGradient id="paint37_linear_171_2142" x1="7761.2" y1="15.366" x2="7761.19" y2="10.452" gradientUnits="userSpaceOnUse"><stop stop-color="#94F9FF"/><stop offset="1" stop-color="#6AEDFF"/></linearGradient><linearGradient id="paint38_linear_171_2142" x1="7868.71" y1="18.9383" x2="7868.7" y2="14.0243" gradientUnits="userSpaceOnUse"><stop stop-color="#94F9FF"/><stop offset="1" stop-color="#6AEDFF"/></linearGradient><linearGradient id="paint39_linear_171_2142" x1="7982.27" y1="22.7693" x2="7982.26" y2="17.8554" gradientUnits="userSpaceOnUse"><stop stop-color="#94F9FF"/><stop offset="1" stop-color="#6AEDFF"/></linearGradient><linearGradient id="paint40_linear_171_2142" x1="8102.65" y1="26.8084" x2="8102.65" y2="21.8944" gradientUnits="userSpaceOnUse"><stop stop-color="#94F9FF"/><stop offset="1" stop-color="#6AEDFF"/></linearGradient><linearGradient id="paint41_linear_171_2142" x1="8230.44" y1="31.1057" x2="8230.44" y2="26.1918" gradientUnits="userSpaceOnUse"><stop stop-color="#94F9FF"/><stop offset="1" stop-color="#6AEDFF"/></linearGradient><linearGradient id="paint42_linear_171_2142" x1="8366.41" y1="35.6619" x2="8366.41" y2="30.7479" gradientUnits="userSpaceOnUse"><stop stop-color="#94F9FF"/><stop offset="1" stop-color="#6AEDFF"/></linearGradient><linearGradient id="paint43_linear_171_2142" x1="8511.11" y1="40.5286" x2="8511.11" y2="35.6146" gradientUnits="userSpaceOnUse"><stop stop-color="#94F9FF"/><stop offset="1" stop-color="#6AEDFF"/></linearGradient><linearGradient id="paint44_linear_171_2142" x1="8665.86" y1="45.7073" x2="8665.86" y2="40.7933" gradientUnits="userSpaceOnUse"><stop stop-color="#94F9FF"/><stop offset="1" stop-color="#6AEDFF"/></linearGradient><linearGradient id="paint45_linear_171_2142" x1="8831.1" y1="51.2464" x2="8831.1" y2="46.3324" gradientUnits="userSpaceOnUse"><stop stop-color="#94F9FF"/><stop offset="1" stop-color="#6AEDFF"/></linearGradient><linearGradient id="paint46_linear_171_2142" x1="9008.61" y1="57.201" x2="9008.61" y2="52.287" gradientUnits="userSpaceOnUse"><stop stop-color="#94F9FF"/><stop offset="1" stop-color="#6AEDFF"/></linearGradient><linearGradient id="paint47_linear_171_2142" x1="9199.2" y1="63.5691" x2="9199.2" y2="58.6552" gradientUnits="userSpaceOnUse"><stop stop-color="#94F9FF"/><stop offset="1" stop-color="#6AEDFF"/></linearGradient><linearGradient id="paint48_linear_171_2142" x1="9404.85" y1="70.5071" x2="9404.85" y2="65.5932" gradientUnits="userSpaceOnUse"><stop stop-color="#94F9FF"/><stop offset="1" stop-color="#6AEDFF"/></linearGradient><linearGradient id="paint49_linear_171_2142" x1="9627.38" y1="77.9627" x2="9627.37" y2="73.0487" gradientUnits="userSpaceOnUse"><stop stop-color="#94F9FF"/><stop offset="1" stop-color="#6AEDFF"/></linearGradient><linearGradient id="paint50_linear_171_2142" x1="9868.57" y1="86.0398" x2="9868.56" y2="81.1259" gradientUnits="userSpaceOnUse"><stop stop-color="#94F9FF"/><stop offset="1" stop-color="#6AEDFF"/></linearGradient><linearGradient id="paint51_linear_171_2142" x1="10131.1" y1="94.8421" x2="10131.1" y2="89.9281" gradientUnits="userSpaceOnUse"><stop stop-color="#94F9FF"/><stop offset="1" stop-color="#6AEDFF"/></linearGradient><linearGradient id="paint52_linear_171_2142" x1="10418.2" y1="104.472" x2="10418.2" y2="99.558" gradientUnits="userSpaceOnUse"><stop stop-color="#94F9FF"/><stop offset="1" stop-color="#6AEDFF"/></linearGradient><linearGradient id="paint53_linear_171_2142" x1="10733" y1="115.035" x2="10733" y2="110.121" gradientUnits="userSpaceOnUse"><stop stop-color="#94F9FF"/><stop offset="1" stop-color="#6AEDFF"/></linearGradient><linearGradient id="paint54_linear_171_2142" x1="11080" y1="126.685" x2="11080" y2="121.771" gradientUnits="userSpaceOnUse"><stop stop-color="#94F9FF"/><stop offset="1" stop-color="#6AEDFF"/></linearGradient><linearGradient id="paint55_linear_171_2142" x1="11464.2" y1="139.577" x2="11464.2" y2="134.663" gradientUnits="userSpaceOnUse"><stop stop-color="#94F9FF"/><stop offset="1" stop-color="#6AEDFF"/></linearGradient><linearGradient id="paint56_linear_171_2142" x1="11892.3" y1="153.919" x2="11892.3" y2="149.005" gradientUnits="userSpaceOnUse"><stop stop-color="#94F9FF"/><stop offset="1" stop-color="#6AEDFF"/></linearGradient><linearGradient id="paint57_linear_171_2142" x1="12372.1" y1="170.022" x2="12372.1" y2="165.108" gradientUnits="userSpaceOnUse"><stop stop-color="#94F9FF"/><stop offset="1" stop-color="#6AEDFF"/></linearGradient><linearGradient id="paint58_linear_171_2142" x1="12913.3" y1="188.143" x2="12913.3" y2="183.229" gradientUnits="userSpaceOnUse"><stop stop-color="#94F9FF"/><stop offset="1" stop-color="#6AEDFF"/></linearGradient><linearGradient id="paint59_linear_171_2142" x1="13528.9" y1="208.802" x2="13528.9" y2="203.888" gradientUnits="userSpaceOnUse"><stop stop-color="#94F9FF"/><stop offset="1" stop-color="#6AEDFF"/></linearGradient><linearGradient id="paint60_linear_171_2142" x1="14235.2" y1="232.515" x2="14235.2" y2="227.601" gradientUnits="userSpaceOnUse"><stop stop-color="#94F9FF"/><stop offset="1" stop-color="#6AEDFF"/></linearGradient><linearGradient id="paint61_linear_171_2142" x1="15053.7" y1="259.956" x2="15053.7" y2="255.042" gradientUnits="userSpaceOnUse"><stop stop-color="#94F9FF"/><stop offset="1" stop-color="#6AEDFF"/></linearGradient><linearGradient id="paint62_linear_171_2142" x1="16013.5" y1="292.161" x2="16013.5" y2="287.247" gradientUnits="userSpaceOnUse"><stop stop-color="#94F9FF"/><stop offset="1" stop-color="#6AEDFF"/></linearGradient><linearGradient id="paint63_linear_171_2142" x1="17155" y1="330.424" x2="17155" y2="325.51" gradientUnits="userSpaceOnUse"><stop stop-color="#94F9FF"/><stop offset="1" stop-color="#6AEDFF"/></linearGradient><linearGradient id="paint64_linear_171_2142" x1="18534.6" y1="376.712" x2="18534.6" y2="371.798" gradientUnits="userSpaceOnUse"><stop stop-color="#94F9FF"/><stop offset="1" stop-color="#6AEDFF"/></linearGradient><linearGradient id="paint65_linear_171_2142" x1="20235.8" y1="433.769" x2="20235.8" y2="428.855" gradientUnits="userSpaceOnUse"><stop stop-color="#94F9FF"/><stop offset="1" stop-color="#6AEDFF"/></linearGradient></defs></svg>