<svg width="2360" height="1936" viewBox="0 0 589 484" fill="none" xmlns="http://www.w3.org/2000/svg"><g filter="url('#filter0_d_287_2725')"><path d="M309.76 4V14.6099C309.76 17.3714 311.998 19.6099 314.76 19.6099H331.311C337.386 19.6099 342.311 24.5348 342.311 30.6099V52.1781V52.1781C342.311 54.095 341.552 55.9339 340.201 57.2933L325.438 72.1438C322.458 75.1416 320.785 79.1969 320.785 83.424V98.6538" stroke="url('#paint0_linear_287_2725')" shape-rendering="crispEdges"/></g><g filter="url('#filter1_d_287_2725')"><path d="M279.309 5V14.6099C279.309 17.3714 277.07 19.6099 274.309 19.6099H257.758C251.682 19.6099 246.758 24.5348 246.758 30.6099V52.1781V52.1781C246.758 54.095 247.516 55.9339 248.867 57.2933L263.63 72.1438C266.611 75.1416 268.283 79.1969 268.283 83.424V98.6538" stroke="url('#paint1_linear_287_2725')" shape-rendering="crispEdges"/></g><g filter="url('#filter2_d_287_2725')"><path d="M234.472 50.8971L241.284 53.3154L241.284 50.5694L234.427 48.1199L234.472 50.8971Z" fill="#C0FBFF"/><path d="M241.508 50.538L241.508 53.5024L234.247 50.9281L234.202 47.9324L241.508 50.538ZM241.059 53.1124L241.059 50.6004L234.65 48.3225L234.695 50.8657L241.059 53.1124Z" fill="#EDFDFE"/><path d="M234.472 45.7008L241.284 48.1191L241.284 45.3887L234.427 42.9392L234.472 45.7008Z" fill="#C0FBFF"/><path d="M241.508 45.3578L241.508 48.3223L234.247 45.7323L234.202 42.7366L241.508 45.3578ZM241.059 47.9322L241.059 45.4202L234.65 43.1267L234.695 45.6699L241.059 47.9322Z" fill="#EDFDFE"/><path d="M234.472 40.5211L241.284 42.9395L241.284 40.1935L234.427 37.7439L234.472 40.5211Z" fill="#C0FBFF"/><path d="M241.508 40.162L241.508 43.1265L234.247 40.5521L234.202 37.5565L241.508 40.162ZM241.059 42.752L241.059 40.24L234.65 37.9465L234.695 40.4897L241.059 42.752Z" fill="#EDFDFE"/><path d="M234.472 35.3253L241.284 37.7437L241.284 35.0133L234.427 32.5637L234.472 35.3253Z" fill="#C0FBFF"/><path d="M241.508 34.9823L241.508 37.9468L234.247 35.3724L234.202 32.3768L241.508 34.9823ZM241.059 37.5567L241.059 35.0448L234.65 32.7512L234.695 35.2944L241.059 37.5567Z" fill="#EDFDFE"/><path d="M234.472 30.1461L241.284 32.5645L241.284 29.8185L234.427 27.3689L234.472 30.1461Z" fill="#C0FBFF"/><path d="M241.508 29.787L241.508 32.7515L234.247 30.1771L234.202 27.1815L241.508 29.787ZM241.059 32.377L241.059 29.865L234.65 27.5871L234.695 30.1303L241.059 32.377Z" fill="#EDFDFE"/><path d="M234.381 22.1882L234.515 24.9498L241.283 27.3682L241.283 24.6378L234.381 22.1882Z" fill="#C0FBFF"/><path d="M241.507 24.6069L241.507 27.5713L234.292 24.9969L234.157 22.0013L241.507 24.6069ZM241.059 27.1812L241.059 24.6693L234.605 22.3757L234.695 24.9189L241.059 27.1812Z" fill="#EDFDFE"/></g><g filter="url('#filter3_d_287_2725')"><path d="M354.598 50.8971L347.785 53.3154L347.785 50.5694L354.643 48.1199L354.598 50.8971Z" fill="#C0FBFF"/><path d="M347.561 50.538L347.561 53.5024L354.821 50.9281L354.866 47.9324L347.561 50.538ZM348.009 53.1124L348.009 50.6004L354.418 48.3225L354.373 50.8657L348.009 53.1124Z" fill="#EDFDFE"/><path d="M354.598 45.7008L347.785 48.1191L347.785 45.3887L354.643 42.9392L354.598 45.7008Z" fill="#C0FBFF"/><path d="M347.561 45.3578L347.561 48.3223L354.821 45.7323L354.866 42.7366L347.561 45.3578ZM348.009 47.9322L348.009 45.4202L354.418 43.1267L354.373 45.6699L348.009 47.9322Z" fill="#EDFDFE"/><path d="M354.598 40.5211L347.785 42.9395L347.785 40.1935L354.643 37.7439L354.598 40.5211Z" fill="#C0FBFF"/><path d="M347.561 40.162L347.561 43.1265L354.821 40.5521L354.866 37.5565L347.561 40.162ZM348.009 42.752L348.009 40.24L354.418 37.9465L354.373 40.4897L348.009 42.752Z" fill="#EDFDFE"/><path d="M354.598 35.3253L347.785 37.7437L347.785 35.0133L354.643 32.5637L354.598 35.3253Z" fill="#C0FBFF"/><path d="M347.561 34.9823L347.561 37.9468L354.821 35.3724L354.866 32.3768L347.561 34.9823ZM348.009 37.5567L348.009 35.0448L354.418 32.7512L354.373 35.2944L348.009 37.5567Z" fill="#EDFDFE"/><path d="M354.598 30.1461L347.785 32.5645L347.785 29.8185L354.643 27.3689L354.598 30.1461Z" fill="#C0FBFF"/><path d="M347.561 29.787L347.561 32.7515L354.821 30.1771L354.866 27.1815L347.561 29.787ZM348.009 32.377L348.009 29.865L354.418 27.5871L354.373 30.1303L348.009 32.377Z" fill="#EDFDFE"/><path d="M354.687 22.1882L354.552 24.9498L347.784 27.3682L347.784 24.6378L354.687 22.1882Z" fill="#C0FBFF"/><path d="M347.561 24.6069L347.561 27.5713L354.777 24.9969L354.911 22.0013L347.561 24.6069ZM348.009 27.1812L348.009 24.6693L354.463 22.3757L354.373 24.9189L348.009 27.1812Z" fill="#EDFDFE"/></g><path d="M239.084 103.559C240.182 101.813 242.1 100.754 244.163 100.754H344.821C346.884 100.754 348.802 101.813 349.9 103.559L584.165 476.017C586.259 479.347 583.866 483.679 579.932 483.679H9.05164C5.11806 483.679 2.72492 479.347 4.81921 476.017L239.084 103.559Z" fill="url('#paint2_linear_287_2725')"/><path d="M241.863 111.218C242.594 110.05 243.876 109.34 245.254 109.34H343.731C345.109 109.34 346.39 110.05 347.122 111.218L573.134 472.406C574.801 475.07 572.885 478.528 569.743 478.528H19.2421C16.0994 478.528 14.1841 475.07 15.8512 472.406L241.863 111.218Z" fill="url('#paint3_linear_287_2725')"/><path d="M266.917 114.666V109.154H295.583V123.854H275.002C270.298 123.854 269.612 122.017 269.857 121.098L266.917 114.666Z" fill="black"/><path d="M323.515 114.666V109.154H294.849V123.854H315.429C317.754 123.854 320.82 122.017 320.575 121.098L323.515 114.666Z" fill="black"/><path fill-rule="evenodd" clip-rule="evenodd" d="M294.799 122.785C297.333 122.778 299.134 122.769 299.424 122.761L299.924 122.747L299.925 122.796C306.83 122.807 315.047 122.803 316.197 122.761C318.043 122.692 318.856 121.827 319.005 121.548C319.011 121.537 319.017 121.527 319.023 121.516L322.838 115.484C322.888 115.404 322.915 115.312 322.915 115.217V109.89V109.39H323.915V109.89V115.217C323.915 115.501 323.835 115.779 323.683 116.019L319.877 122.037C319.522 122.682 318.355 123.682 316.234 123.76C314.755 123.815 301.913 123.806 294.799 123.785C287.686 123.806 274.844 123.815 273.365 123.76C271.244 123.682 270.077 122.682 269.721 122.037L265.916 116.019C265.764 115.779 265.684 115.501 265.684 115.217V109.89V109.39H266.684V109.89V115.217C266.684 115.312 266.71 115.404 266.761 115.484L270.575 121.516C270.582 121.527 270.588 121.537 270.594 121.548C270.743 121.827 271.555 122.692 273.402 122.761C274.552 122.803 282.769 122.807 289.674 122.796L289.675 122.747L290.175 122.761C290.464 122.769 292.266 122.778 294.799 122.785Z" fill="url('#paint4_linear_287_2725')"/><g filter="url('#filter4_d_287_2725')"><path d="M237.063 142.095L41.966 454.101" stroke="url('#paint5_linear_287_2725')" stroke-width="0.5" shape-rendering="crispEdges"/><path d="M237.063 142.095L41.966 454.101" stroke="url('#paint6_radial_287_2725')" stroke-opacity="0.6" stroke-width="0.5" shape-rendering="crispEdges"/></g><g filter="url('#filter5_d_287_2725')"><path d="M351.851 142.095L546.948 454.101" stroke="url('#paint7_linear_287_2725')" stroke-width="0.5" shape-rendering="crispEdges"/><path d="M351.851 142.095L546.948 454.101" stroke="url('#paint8_radial_287_2725')" stroke-opacity="0.6" stroke-width="0.5" shape-rendering="crispEdges"/></g><defs><linearGradient id="paint0_linear_287_2725" x1="326.035" y1="-20" x2="326.035" y2="98.6538" gradientUnits="userSpaceOnUse"><stop stop-color="#333A3A" stop-opacity="0.98359"/><stop offset="0.286458" stop-color="#D2FCFA"/><stop offset="0.541667" stop-color="#80EAE5" stop-opacity="0.970052"/><stop offset="0.760417" stop-color="#547775" stop-opacity="0.96224"/><stop offset="0.973958" stop-color="#4D4D4D" stop-opacity="0.95"/></linearGradient><linearGradient id="paint1_linear_287_2725" x1="263.033" y1="-20" x2="263.033" y2="98.6538" gradientUnits="userSpaceOnUse"><stop stop-color="#333A3A" stop-opacity="0.98359"/><stop offset="0.286458" stop-color="#D2FCFA"/><stop offset="0.541667" stop-color="#80EAE5" stop-opacity="0.970052"/><stop offset="0.760417" stop-color="#547775" stop-opacity="0.96224"/><stop offset="0.973958" stop-color="#4D4D4D" stop-opacity="0.95"/></linearGradient><linearGradient id="paint2_linear_287_2725" x1="294.492" y1="100.754" x2="294.492" y2="560.046" gradientUnits="userSpaceOnUse"><stop stop-color="#CFF4FF"/><stop offset="1" stop-color="#71D7FF"/></linearGradient><linearGradient id="paint3_linear_287_2725" x1="286.765" y1="60.4009" x2="293.634" y2="669.991" gradientUnits="userSpaceOnUse"><stop stop-color="#4B5356"/><stop offset="1" stop-color="#191D20"/></linearGradient><linearGradient id="paint4_linear_287_2725" x1="294.848" y1="127.897" x2="294.848" y2="103.695" gradientUnits="userSpaceOnUse"><stop stop-color="#C0FBFF"/><stop offset="1" stop-opacity="0.69"/></linearGradient><linearGradient id="paint5_linear_287_2725" x1="234.715" y1="129.711" x2="87.2058" y2="459.679" gradientUnits="userSpaceOnUse"><stop stop-color="#2A2E31"/><stop offset="0.494792" stop-color="#5493A0" stop-opacity="0.87"/><stop offset="1" stop-color="#122534"/></linearGradient><linearGradient id="paint7_linear_287_2725" x1="354.199" y1="129.711" x2="501.708" y2="459.679" gradientUnits="userSpaceOnUse"><stop stop-color="#2A2E31"/><stop offset="0.494792" stop-color="#5493A0" stop-opacity="0.87"/><stop offset="1" stop-color="#122534"/></linearGradient><filter id="filter0_d_287_2725" x="305.26" y="0" width="41.5508" height="102.654" filterUnits="userSpaceOnUse" color-interpolation-filters="sRGB"><feFlood flood-opacity="0" result="BackgroundImageFix"/><feColorMatrix in="SourceAlpha" type="matrix" values="0 0 0 0 0 0 0 0 0 0 0 0 0 0 0 0 0 0 127 0" result="hardAlpha"/><feOffset/><feGaussianBlur stdDeviation="2"/><feComposite in2="hardAlpha" operator="out"/><feColorMatrix type="matrix" values="0 0 0 0 0.754167 0 0 0 0 0.98525 0 0 0 0 1 0 0 0 0.8 0"/><feBlend mode="normal" in2="BackgroundImageFix" result="effect1_dropShadow_287_2725"/><feBlend mode="normal" in="SourceGraphic" in2="effect1_dropShadow_287_2725" result="shape"/></filter><filter id="filter1_d_287_2725" x="242.258" y="1" width="41.5508" height="101.654" filterUnits="userSpaceOnUse" color-interpolation-filters="sRGB"><feFlood flood-opacity="0" result="BackgroundImageFix"/><feColorMatrix in="SourceAlpha" type="matrix" values="0 0 0 0 0 0 0 0 0 0 0 0 0 0 0 0 0 0 127 0" result="hardAlpha"/><feOffset/><feGaussianBlur stdDeviation="2"/><feComposite in2="hardAlpha" operator="out"/><feColorMatrix type="matrix" values="0 0 0 0 0.754167 0 0 0 0 0.98525 0 0 0 0 1 0 0 0 0.8 0"/><feBlend mode="normal" in2="BackgroundImageFix" result="effect1_dropShadow_287_2725"/><feBlend mode="normal" in="SourceGraphic" in2="effect1_dropShadow_287_2725" result="shape"/></filter><filter id="filter2_d_287_2725" x="232.157" y="20.0015" width="11.3506" height="35.501" filterUnits="userSpaceOnUse" color-interpolation-filters="sRGB"><feFlood flood-opacity="0" result="BackgroundImageFix"/><feColorMatrix in="SourceAlpha" type="matrix" values="0 0 0 0 0 0 0 0 0 0 0 0 0 0 0 0 0 0 127 0" result="hardAlpha"/><feOffset/><feGaussianBlur stdDeviation="1"/><feComposite in2="hardAlpha" operator="out"/><feColorMatrix type="matrix" values="0 0 0 0 0.754167 0 0 0 0 0.98525 0 0 0 0 1 0 0 0 0.8 0"/><feBlend mode="normal" in2="BackgroundImageFix" result="effect1_dropShadow_287_2725"/><feBlend mode="normal" in="SourceGraphic" in2="effect1_dropShadow_287_2725" result="shape"/></filter><filter id="filter3_d_287_2725" x="345.561" y="20.0015" width="11.3506" height="35.501" filterUnits="userSpaceOnUse" color-interpolation-filters="sRGB"><feFlood flood-opacity="0" result="BackgroundImageFix"/><feColorMatrix in="SourceAlpha" type="matrix" values="0 0 0 0 0 0 0 0 0 0 0 0 0 0 0 0 0 0 127 0" result="hardAlpha"/><feOffset/><feGaussianBlur stdDeviation="1"/><feComposite in2="hardAlpha" operator="out"/><feColorMatrix type="matrix" values="0 0 0 0 0.754167 0 0 0 0 0.98525 0 0 0 0 1 0 0 0 0.8 0"/><feBlend mode="normal" in2="BackgroundImageFix" result="effect1_dropShadow_287_2725"/><feBlend mode="normal" in="SourceGraphic" in2="effect1_dropShadow_287_2725" result="shape"/></filter><filter id="filter4_d_287_2725" x="37.7539" y="137.962" width="203.521" height="320.271" filterUnits="userSpaceOnUse" color-interpolation-filters="sRGB"><feFlood flood-opacity="0" result="BackgroundImageFix"/><feColorMatrix in="SourceAlpha" type="matrix" values="0 0 0 0 0 0 0 0 0 0 0 0 0 0 0 0 0 0 127 0" result="hardAlpha"/><feOffset/><feGaussianBlur stdDeviation="2"/><feComposite in2="hardAlpha" operator="out"/><feColorMatrix type="matrix" values="0 0 0 0 0.754167 0 0 0 0 0.98525 0 0 0 0 1 0 0 0 0.4 0"/><feBlend mode="normal" in2="BackgroundImageFix" result="effect1_dropShadow_287_2725"/><feBlend mode="normal" in="SourceGraphic" in2="effect1_dropShadow_287_2725" result="shape"/></filter><filter id="filter5_d_287_2725" x="347.639" y="137.962" width="203.521" height="320.271" filterUnits="userSpaceOnUse" color-interpolation-filters="sRGB"><feFlood flood-opacity="0" result="BackgroundImageFix"/><feColorMatrix in="SourceAlpha" type="matrix" values="0 0 0 0 0 0 0 0 0 0 0 0 0 0 0 0 0 0 127 0" result="hardAlpha"/><feOffset/><feGaussianBlur stdDeviation="2"/><feComposite in2="hardAlpha" operator="out"/><feColorMatrix type="matrix" values="0 0 0 0 0.754167 0 0 0 0 0.98525 0 0 0 0 1 0 0 0 0.4 0"/><feBlend mode="normal" in2="BackgroundImageFix" result="effect1_dropShadow_287_2725"/><feBlend mode="normal" in="SourceGraphic" in2="effect1_dropShadow_287_2725" result="shape"/></filter><radialGradient id="paint6_radial_287_2725" cx="0" cy="0" r="1" gradientUnits="userSpaceOnUse" gradientTransform="translate(85.7297 377.132) rotate(55.0676) scale(114.302 71.9016)"><stop stop-color="#76F7FF"/><stop offset="1" stop-color="#C0FBFF" stop-opacity="0"/></radialGradient><radialGradient id="paint8_radial_287_2725" cx="0" cy="0" r="1" gradientUnits="userSpaceOnUse" gradientTransform="translate(503.184 377.132) rotate(124.932) scale(114.302 71.9016)"><stop stop-color="#76F7FF"/><stop offset="1" stop-color="#C0FBFF" stop-opacity="0"/></radialGradient></defs></svg>