<svg width="105" height="59" viewBox="0 0 105 59" fill="none" xmlns="http://www.w3.org/2000/svg" preserveAspectRatio="none"><g filter="url('#filter0_i_267_2048')"><path d="M101 1H4.44298C2.08031 1 0.644867 3.60437 1.90652 5.60198L34.4114 57.068C34.7778 57.6482 35.4161 58 36.1023 58H102C103.105 58 104 57.1046 104 56V4C104 2.34315 102.657 1 101 1Z" fill="#FDF77A"/></g><path d="M101 1H4.44298C2.08031 1 0.644867 3.60437 1.90652 5.60198L34.4114 57.068C34.7778 57.6482 35.4161 58 36.1023 58H102C103.105 58 104 57.1046 104 56V4C104 2.34315 102.657 1 101 1Z" stroke="#FE7221" stroke-opacity="0.7"/><defs><filter id="filter0_i_267_2048" x="0.9375" y="0.5" width="103.562" height="58" filterUnits="userSpaceOnUse" color-interpolation-filters="sRGB"><feFlood flood-opacity="0" result="BackgroundImageFix"/><feBlend mode="normal" in="SourceGraphic" in2="BackgroundImageFix" result="shape"/><feColorMatrix in="SourceAlpha" type="matrix" values="0 0 0 0 0 0 0 0 0 0 0 0 0 0 0 0 0 0 127 0" result="hardAlpha"/><feOffset/><feGaussianBlur stdDeviation="7.5"/><feComposite in2="hardAlpha" operator="arithmetic" k2="-1" k3="1"/><feColorMatrix type="matrix" values="0 0 0 0 1 0 0 0 0 0.568627 0 0 0 0 0.368627 0 0 0 0.9 0"/><feBlend mode="normal" in2="shape" result="effect1_innerShadow_267_2048"/></filter></defs></svg>