<svg width="70" height="49" viewBox="0 0 70 49" fill="none" xmlns="http://www.w3.org/2000/svg" preserveAspectRatio="none"><g filter="url('#filter0_i_267_2049')"><path d="M68 1H1.82465C1.03493 1 0.556831 1.87237 0.981728 2.53803L29.4103 47.0761C29.7776 47.6516 30.4133 48 31.0961 48H67C68.1046 48 69 47.1046 69 46V2C69 1.44772 68.5523 1 68 1Z" fill="#95FFF1"/></g><path d="M68 1H1.82465C1.03493 1 0.556831 1.87237 0.981728 2.53803L29.4103 47.0761C29.7776 47.6516 30.4133 48 31.0961 48H67C68.1046 48 69 47.1046 69 46V2C69 1.44772 68.5523 1 68 1Z" stroke="#07E3CA" stroke-opacity="0.57"/><defs><filter id="filter0_i_267_2049" x="0.322266" y="0.5" width="69.1777" height="48" filterUnits="userSpaceOnUse" color-interpolation-filters="sRGB"><feFlood flood-opacity="0" result="BackgroundImageFix"/><feBlend mode="normal" in="SourceGraphic" in2="BackgroundImageFix" result="shape"/><feColorMatrix in="SourceAlpha" type="matrix" values="0 0 0 0 0 0 0 0 0 0 0 0 0 0 0 0 0 0 127 0" result="hardAlpha"/><feOffset/><feGaussianBlur stdDeviation="7.5"/><feComposite in2="hardAlpha" operator="arithmetic" k2="-1" k3="1"/><feColorMatrix type="matrix" values="0 0 0 0 0.120556 0 0 0 0 0.933333 0 0 0 0 0.8358 0 0 0 0.9 0"/><feBlend mode="normal" in2="shape" result="effect1_innerShadow_267_2049"/></filter></defs></svg>