<svg width="70" height="49" viewBox="0 0 70 49" fill="none" xmlns="http://www.w3.org/2000/svg" preserveAspectRatio="none"><g filter="url('#filter0_i_267_2044')"><path d="M2 1H68.1754C68.9651 1 69.4432 1.87237 69.0183 2.53803L40.5897 47.0761C40.2224 47.6516 39.5867 48 38.9039 48H3C1.89543 48 1 47.1046 1 46V2C1 1.44772 1.44772 1 2 1Z" fill="#95FFF1"/></g><path d="M2 1H68.1754C68.9651 1 69.4432 1.87237 69.0183 2.53803L40.5897 47.0761C40.2224 47.6516 39.5867 48 38.9039 48H3C1.89543 48 1 47.1046 1 46V2C1 1.44772 1.44772 1 2 1Z" stroke="#07E3CA" stroke-opacity="0.57"/><defs><filter id="filter0_i_267_2044" x="0.5" y="0.5" width="69.1777" height="48" filterUnits="userSpaceOnUse" color-interpolation-filters="sRGB"><feFlood flood-opacity="0" result="BackgroundImageFix"/><feBlend mode="normal" in="SourceGraphic" in2="BackgroundImageFix" result="shape"/><feColorMatrix in="SourceAlpha" type="matrix" values="0 0 0 0 0 0 0 0 0 0 0 0 0 0 0 0 0 0 127 0" result="hardAlpha"/><feOffset/><feGaussianBlur stdDeviation="7.5"/><feComposite in2="hardAlpha" operator="arithmetic" k2="-1" k3="1"/><feColorMatrix type="matrix" values="0 0 0 0 0.120556 0 0 0 0 0.933333 0 0 0 0 0.8358 0 0 0 0.9 0"/><feBlend mode="normal" in2="shape" result="effect1_innerShadow_267_2044"/></filter></defs></svg>