<svg width="105" height="59" viewBox="0 0 105 59" fill="none" xmlns="http://www.w3.org/2000/svg" preserveAspectRatio="none"><g filter="url('#filter0_i_267_2043')"><path d="M4 1H100.557C102.92 1 104.355 3.60437 103.093 5.60198L70.5886 57.068C70.2222 57.6482 69.5839 58 68.8977 58H3C1.89543 58 1 57.1046 1 56V4C1 2.34315 2.34315 1 4 1Z" fill="#FDF77A"/></g><path d="M4 1H100.557C102.92 1 104.355 3.60437 103.093 5.60198L70.5886 57.068C70.2222 57.6482 69.5839 58 68.8977 58H3C1.89543 58 1 57.1046 1 56V4C1 2.34315 2.34315 1 4 1Z" stroke="#FE7221" stroke-opacity="0.7"/><defs><filter id="filter0_i_267_2043" x="0.5" y="0.5" width="103.562" height="58" filterUnits="userSpaceOnUse" color-interpolation-filters="sRGB"><feFlood flood-opacity="0" result="BackgroundImageFix"/><feBlend mode="normal" in="SourceGraphic" in2="BackgroundImageFix" result="shape"/><feColorMatrix in="SourceAlpha" type="matrix" values="0 0 0 0 0 0 0 0 0 0 0 0 0 0 0 0 0 0 127 0" result="hardAlpha"/><feOffset/><feGaussianBlur stdDeviation="7.5"/><feComposite in2="hardAlpha" operator="arithmetic" k2="-1" k3="1"/><feColorMatrix type="matrix" values="0 0 0 0 1 0 0 0 0 0.568627 0 0 0 0 0.368627 0 0 0 0.9 0"/><feBlend mode="normal" in2="shape" result="effect1_innerShadow_267_2043"/></filter></defs></svg>