<svg xmlns="http://www.w3.org/2000/svg" width="28" height="28" fill="none"><path fill="#FF003A" d="M5.624 25h15.764C23.8 25 25 23.814 25 21.464V7.536C25 5.186 23.8 4 21.388 4H5.624C3.212 4 2 5.175 2 7.536v13.928C2 23.825 3.212 25 5.624 25Zm-.173-1.837c-1.028 0-1.593-.536-1.593-1.596V10.81c0-1.05.565-1.597 1.593-1.597h16.087c1.027 0 1.604.547 1.604 1.597v10.757c0 1.06-.577 1.596-1.604 1.596H5.45Zm5.804-9.855h.681c.404 0 .531-.114.531-.513v-.673c0-.4-.127-.525-.53-.525h-.682c-.404 0-.542.125-.542.525v.673c0 .399.139.513.542.513Zm3.832 0h.68c.405 0 .543-.114.543-.513v-.673c0-.4-.138-.525-.542-.525h-.681c-.404 0-.543.125-.543.525v.673c0 .399.139.513.543.513Zm3.831 0h.681c.404 0 .543-.114.543-.513v-.673c0-.4-.14-.525-.543-.525h-.68c-.405 0-.532.125-.532.525v.673c0 .399.127.513.531.513Zm-11.494 3.73h.67c.415 0 .542-.114.542-.513v-.673c0-.4-.127-.514-.543-.514h-.669c-.415 0-.542.115-.542.514v.673c0 .399.127.513.542.513Zm3.831 0h.681c.404 0 .531-.114.531-.513v-.673c0-.4-.127-.514-.53-.514h-.682c-.404 0-.542.115-.542.514v.673c0 .399.139.513.542.513Zm3.832 0h.68c.405 0 .543-.114.543-.513v-.673c0-.4-.138-.514-.542-.514h-.681c-.404 0-.543.115-.543.514v.673c0 .399.139.513.543.513Zm3.831 0h.681c.404 0 .543-.114.543-.513v-.673c0-.4-.14-.514-.543-.514h-.68c-.405 0-.532.115-.532.514v.673c0 .399.127.513.531.513ZM7.424 20.779h.67c.415 0 .542-.125.542-.524v-.673c0-.4-.127-.514-.543-.514h-.669c-.415 0-.542.114-.542.514v.673c0 .399.127.524.542.524Zm3.831 0h.681c.404 0 .531-.125.531-.524v-.673c0-.4-.127-.514-.53-.514h-.682c-.404 0-.542.114-.542.514v.673c0 .399.139.524.542.524Zm3.832 0h.68c.405 0 .543-.125.543-.524v-.673c0-.4-.138-.514-.542-.514h-.681c-.404 0-.543.114-.543.514v.673c0 .399.139.524.543.524Z"/></svg>