<svg width="17" height="49" viewBox="0 0 17 49" fill="none" xmlns="http://www.w3.org/2000/svg"><g clip-path="url('#clip0')"><path d="M1.4785 30.334C1.26202 30.334 1.0849 30.1568 1.0849 29.9404L1.0849 26.5947C1.0849 25.6501 1.32106 24.9416 1.77371 24.4889C2.22635 24.0363 2.93484 23.8001 3.87949 23.8001L5.39486 23.8001C5.94591 23.8001 6.43791 23.9182 6.8512 24.1544C7.26448 24.3905 7.59905 24.7054 7.83521 25.1384C8.07137 25.5517 8.18945 26.0437 8.18945 26.5947L8.18945 29.9404C8.18945 30.1568 8.01233 30.334 7.79585 30.334L1.4785 30.334ZM5.96559 27.008C5.96559 26.6931 5.88687 26.4373 5.74911 26.2798C5.61134 26.1224 5.37518 26.024 5.07998 26.024L4.29277 26.024C3.93853 26.024 3.68269 26.1027 3.52524 26.2405C3.38748 26.3979 3.30876 26.6538 3.30876 27.008L3.30876 27.7362C3.30876 27.9527 3.48588 28.1298 3.70237 28.1298L5.59166 28.1298C5.80815 28.1298 5.98527 27.9527 5.98527 27.7362L5.98527 27.008L5.96559 27.008Z" fill="#0A090B"/><path d="M1.10486 23.0329L1.10486 18.349C1.10486 18.2112 1.20326 18.1128 1.34102 18.1128L3.07288 18.1128C3.21064 18.1128 3.30904 18.2112 3.30904 18.349L3.30904 20.809C3.30904 20.9468 3.40744 21.0452 3.5452 21.0452L3.58456 21.0452C3.72232 21.0452 3.82073 20.9468 3.82073 20.809L3.82073 18.5261C3.82073 18.3884 3.91913 18.29 4.05689 18.29L5.25738 18.29C5.39514 18.29 5.49354 18.3884 5.49354 18.5261L5.49354 20.809C5.49354 20.9468 5.59194 21.0452 5.7297 21.0452C5.86747 21.0452 5.96587 20.9468 5.96587 20.809L5.96587 18.349C5.96587 18.2112 6.06427 18.1128 6.20203 18.1128L7.93389 18.1128C8.07165 18.1128 8.17005 18.2112 8.17005 18.349L8.17005 23.0329C8.17005 23.1707 8.07165 23.2691 7.93389 23.2691L1.34102 23.2691C1.20326 23.2691 1.10486 23.151 1.10486 23.0329Z" fill="#0A090B"/><path d="M8.18973 7.93848L8.18973 9.67034C8.18973 9.8081 8.09133 9.9065 7.95357 9.9065L5.49354 9.9065C5.2377 9.9065 5.15898 10.2607 5.39514 10.3788L8.03229 11.4612C8.13069 11.5006 8.18973 11.5793 8.18973 11.6777L8.18973 13.567C8.18973 13.6654 8.13069 13.7441 8.03229 13.7835L5.39514 14.9053C5.15898 15.0037 5.21802 15.3776 5.49354 15.3776L7.93389 15.3776C8.07165 15.3776 8.17005 15.476 8.17005 15.6138L8.17005 17.3456C8.17005 17.4834 8.07165 17.5818 7.93389 17.5818L1.34102 17.5818C1.20326 17.5818 1.10486 17.4834 1.10486 17.3456L1.10486 14.6494C1.10486 14.551 1.1639 14.4723 1.2623 14.4329L5.00154 12.8782C5.19834 12.7995 5.19834 12.524 5.00154 12.4256L1.2623 10.8708C1.1639 10.8315 1.10486 10.7527 1.10486 10.6543L1.10486 7.95816C1.10486 7.8204 1.20326 7.722 1.34102 7.722L7.95357 7.722C8.07165 7.70232 8.18973 7.80072 8.18973 7.93848Z" fill="#0A090B"/><path d="M7.38269 6.16696C7.26461 6.30472 7.14653 6.4228 7.02845 6.5212C6.31996 7.13129 5.51307 7.42649 4.62746 7.42649C3.74185 7.42649 2.93497 7.13129 2.22648 6.5212C2.08872 6.40312 1.97064 6.28504 1.87223 6.16696C1.24247 5.45847 0.947266 4.65158 0.947266 3.76597C0.947266 2.88036 1.24247 2.07348 1.85255 1.36499C1.97064 1.22723 2.08872 1.10915 2.2068 1.01074C2.91529 0.420339 3.72217 0.105457 4.60778 0.105457C5.49339 0.105458 6.30028 0.400659 7.00877 1.01074C7.14653 1.12883 7.26461 1.24691 7.36301 1.36499C7.9731 2.07348 8.2683 2.88036 8.2683 3.76597C8.28798 4.65158 7.9731 5.45847 7.38269 6.16696ZM5.84763 3.05749C5.72955 2.84101 5.55243 2.66388 5.33595 2.5458C5.11947 2.42772 4.88331 2.349 4.62746 2.349C4.37162 2.349 4.13546 2.40804 3.91898 2.5458C3.70249 2.66388 3.52537 2.841 3.40729 3.05749C3.28921 3.27397 3.21049 3.51013 3.21049 3.76597C3.21049 4.02182 3.26953 4.25798 3.40729 4.47446C3.52537 4.69094 3.70249 4.86807 3.91898 4.98615C4.13546 5.10423 4.37162 5.18295 4.62746 5.18295C4.88331 5.18295 5.11947 5.12391 5.33595 4.98615C5.55243 4.86807 5.72955 4.69094 5.84763 4.47446C5.96572 4.25798 6.04444 4.02182 6.04444 3.76597C6.02476 3.51013 5.96572 3.27397 5.84763 3.05749Z" fill="#0A090B"/><path d="M16.8487 20.7694L16.8487 22.3438C16.8487 22.5209 16.7109 22.6587 16.5338 22.6587L14.5854 22.6587C14.2312 22.6587 14.1328 23.1507 14.4674 23.2885L16.6715 24.1937C16.7896 24.2528 16.8683 24.3709 16.8683 24.4889L16.8683 26.2798C16.8683 26.4176 16.7896 26.5357 16.6715 26.575L14.4477 27.5C14.1131 27.6378 14.2115 28.1298 14.5658 28.1298L16.5141 28.1298C16.6912 28.1298 16.829 28.2675 16.829 28.4447L16.829 30.0191C16.829 30.1962 16.6912 30.334 16.5141 30.334L10.0787 30.334C9.90156 30.334 9.76379 30.1962 9.76379 30.0191L9.76379 27.4607C9.76379 27.3229 9.84251 27.2048 9.9606 27.1654L13.4637 25.7091C13.7392 25.591 13.7392 25.2171 13.4637 25.1187L9.9606 23.6624C9.84251 23.6033 9.76379 23.4853 9.76379 23.3672L9.76379 20.8087C9.76379 20.6316 9.90156 20.4939 10.0787 20.4939L16.5141 20.4939C16.6912 20.4545 16.8487 20.5923 16.8487 20.7694Z" fill="#0A090B"/><path d="M16.0419 18.9191C15.9238 19.0569 15.8057 19.175 15.6877 19.2734C14.9792 19.8835 14.1723 20.1787 13.2867 20.1787C12.4011 20.1787 11.5942 19.8835 10.8857 19.2734C10.7479 19.1553 10.6299 19.0372 10.5314 18.9191C9.92136 18.2107 9.62616 17.4038 9.62616 16.5182C9.62616 15.6326 9.92136 14.8257 10.5314 14.1172C10.6495 13.9794 10.7676 13.8613 10.8857 13.7629C11.5942 13.1528 12.4011 12.8576 13.2867 12.8576C14.1723 12.8576 14.9792 13.1528 15.6877 13.7629C15.8254 13.881 15.9435 13.9991 16.0419 14.1172C16.652 14.8257 16.9472 15.6326 16.9472 16.5182C16.9472 17.4038 16.6323 18.2107 16.0419 18.9191ZM14.5068 15.8097C14.3691 15.5735 14.1723 15.3767 13.9164 15.2586C13.7393 15.1602 13.5622 15.1209 13.3654 15.1012C13.0702 15.0815 12.8144 15.1405 12.5782 15.298C12.342 15.4358 12.1452 15.6326 12.0271 15.8884C11.9287 16.0655 11.8894 16.2426 11.8697 16.4394C11.85 16.7346 11.9091 16.9905 12.0665 17.2266C12.2043 17.4628 12.4011 17.6596 12.6569 17.7777C12.834 17.8761 13.0308 17.9155 13.208 17.9351C13.5032 17.9548 13.759 17.8958 13.9952 17.7383C14.2116 17.6203 14.3888 17.4431 14.5068 17.2266C14.6249 17.0102 14.7037 16.774 14.7037 16.5182C14.684 16.2623 14.6249 16.0262 14.5068 15.8097Z" fill="#0A090B"/><path d="M10 12.5034C9.86224 12.5034 9.74416 12.3853 9.74416 12.2476L9.74416 8.76419C9.74416 7.81954 9.98032 7.11106 10.433 6.65841C10.8856 6.20577 11.5941 5.9696 12.5387 5.9696L14.0541 5.9696C14.6052 5.9696 15.0972 6.08768 15.5105 6.32385C15.9237 6.56001 16.2583 6.87489 16.4945 7.30786C16.7306 7.72114 16.8487 8.21315 16.8487 8.76419L16.8487 12.2476C16.8487 12.3853 16.7306 12.5034 16.5929 12.5034L10 12.5034ZM14.6248 9.1578C14.6248 8.84291 14.5461 8.58707 14.4084 8.42963C14.2706 8.27219 14.0344 8.17379 13.7392 8.17379L12.952 8.17379C12.5978 8.17379 12.3419 8.2525 12.1845 8.39027C12.0271 8.54771 11.968 8.80355 11.968 9.1578L11.968 10.004C11.968 10.1418 12.0861 10.2599 12.2239 10.2599L14.369 10.2599C14.5068 10.2599 14.6248 10.1418 14.6248 10.004L14.6248 9.1578Z" fill="#0A090B"/><path d="M9.76379 5.18241L9.76379 0.498518C9.76379 0.360756 9.8622 0.262356 9.99996 0.262356L11.7318 0.262356C11.8696 0.262356 11.968 0.360756 11.968 0.498518L11.968 2.95854C11.968 3.0963 12.0664 3.1947 12.2041 3.1947L12.2435 3.1947C12.3813 3.1947 12.4797 3.0963 12.4797 2.95854L12.4797 0.675638C12.4797 0.537877 12.5781 0.439477 12.7158 0.439477L13.9163 0.439477C14.0541 0.439477 14.1525 0.537877 14.1525 0.675638L14.1525 2.95854C14.1525 3.0963 14.2509 3.1947 14.3886 3.1947C14.5264 3.1947 14.6248 3.0963 14.6248 2.95854L14.6248 0.498518C14.6248 0.360756 14.7232 0.262356 14.861 0.262356L16.5928 0.262356C16.7306 0.262356 16.829 0.360756 16.829 0.498518L16.829 5.18241C16.829 5.32017 16.7306 5.41857 16.5928 5.41857L9.99996 5.41857C9.8622 5.41857 9.76379 5.32017 9.76379 5.18241Z" fill="#0A090B"/><path d="M16.0222 41.4732C16.0222 37.343 12.674 33.9948 8.54374 33.9948C4.41349 33.9948 1.06526 37.343 1.06526 41.4732C1.06526 45.6035 4.41349 48.9517 8.54374 48.9517C12.674 48.9517 16.0222 45.6035 16.0222 41.4732Z" fill="black"/><path d="M10.8661 35.9037L8.48483 38.3047L6.08385 35.9037C5.78865 35.6085 5.31632 35.6085 5.02112 35.9037L2.89566 38.0489C2.60046 38.3441 2.60046 38.8164 2.89566 39.1116L5.29664 41.4929L2.89566 43.8939C2.60045 44.1891 2.60045 44.6614 2.89566 44.9566L5.02112 47.0821C5.31632 47.3773 5.78865 47.3773 6.08385 47.0821L8.48483 44.6811L10.8661 47.0821C11.1613 47.3773 11.6337 47.3773 11.9289 47.0821L14.0543 44.9566C14.3495 44.6614 14.3495 44.1891 14.0543 43.8939L11.6533 41.4929L14.074 39.1116C14.3692 38.8164 14.3692 38.3441 14.074 38.0489L11.9485 35.9234C11.6533 35.6282 11.1613 35.6282 10.8661 35.9037Z" fill="#FF3645"/></g><defs><clipPath id="clip0"><rect width="48.8462" height="16" fill="white" transform="translate(0.947266 48.9517) rotate(-90)"/></clipPath></defs></svg>