<svg xmlns="http://www.w3.org/2000/svg" width="24" height="24" fill="none"><path fill="#fff" d="M3.699 17.55h16.593c1.243 0 1.993-.74 1.993-1.965v-10.2c0-1.226-.75-1.957-1.993-1.957H3.699c-1.234 0-1.985.731-1.985 1.956v10.201c0 1.225.75 1.965 1.985 1.965Zm.025-1.37c-.38 0-.62-.238-.62-.612V5.41c0-.383.24-.613.62-.613h16.55c.38 0 .622.23.622.613v10.158c0 .374-.242.613-.621.613H3.725Zm5.549 3.395h5.453V17.44H9.273v2.135Zm-.052.996h5.557a.69.69 0 1 0 0-1.379H9.221a.697.697 0 0 0-.699.69c0 .382.32.689.699.689Z"/></svg>