<svg xmlns="http://www.w3.org/2000/svg" width="28" height="28" fill="none"><path fill="#FF003A" fill-rule="evenodd" d="M2.912 20.476c-.5 0-.912-.422-.912-.944s.412-.945.912-.945h1.767V8.756C4.68 7.596 5.341 7 6.406 7h14.47c1.009 0 1.6.483 1.708 1.425h-1.626a.944.944 0 0 0-.438-.091H6.761c-.524 0-.783.265-.783.795v9.458h10.669v.82c0 .394.064.752.183 1.069H2.912Z" clip-rule="evenodd"/><path fill="#FF003A" d="M19.238 20.956h3.68c1 0 1.573-.563 1.573-1.549v-8.25c0-.985-.573-1.556-1.573-1.556h-3.68c-.993 0-1.574.571-1.574 1.557v8.25c0 .985.573 1.548 1.574 1.548Zm.024-1.085c-.355 0-.54-.199-.54-.571v-8.035c0-.38.185-.58.54-.58h3.64c.354 0 .532.2.532.58V19.3c0 .372-.178.571-.533.571h-3.64Zm.718-.422h2.187c.161 0 .29-.116.29-.29a.284.284 0 0 0-.29-.282H19.98c-.17 0-.274.125-.274.282 0 .182.097.29.274.29Zm.452-7.579h1.267c.21 0 .38-.174.38-.39a.375.375 0 0 0-.38-.372h-1.267a.368.368 0 0 0-.371.373c0 .215.161.389.371.389Z"/></svg>