<svg xmlns="http://www.w3.org/2000/svg" width="28" height="27" fill="none"><path fill="#fff" fill-rule="evenodd" d="M11.629 7.034H9.827c-1.812 0-2.534.912-3.725 2.474L2.58 14.152c-.448.586-.58 1.074-.58 2.061v6.423C2 24.872 3.069 26 5.196 26h17.608C24.942 26 26 24.872 26 22.636v-6.423c0-.987-.122-1.475-.58-2.061l-3.512-4.644c-1.19-1.562-1.923-2.474-3.725-2.474h-1.811v1.53h1.923c.743 0 1.517.694 2.015 1.367l3.614 4.85c.407.553.264.77-.296.77h-6.483c-.53 0-.773.434-.773.88v.043c0 1.258-.927 2.582-2.372 2.582-1.435 0-2.361-1.324-2.361-2.582v-.044c0-.445-.255-.879-.784-.879H4.392c-.59 0-.702-.25-.305-.77l3.603-4.85c.498-.673 1.272-1.367 2.015-1.367h1.924v-1.53ZM3.639 22.54c0 1.128.56 1.714 1.577 1.714h17.568c1.007 0 1.577-.586 1.577-1.714v-5.393h-6.453c-.244 2.018-1.842 3.526-3.908 3.526s-3.664-1.497-3.908-3.526H3.639v5.393Z" clip-rule="evenodd"/><path fill="#fff" d="M14 15.421c.214 0 .387-.065.59-.282l3.44-3.537a.805.805 0 0 0 .235-.575c0-.445-.316-.76-.733-.76a.728.728 0 0 0-.56.261l-1.537 1.747-.692.77.071-1.627V2.835C14.814 2.38 14.438 2 14 2c-.438 0-.804.38-.804.835v8.583l.06 1.627-.691-.77-1.537-1.747a.764.764 0 0 0-.57-.26c-.417 0-.723.314-.723.76 0 .227.082.412.234.574l3.44 3.537c.204.217.387.282.591.282Z"/></svg>