<svg width="26" height="26" viewBox="0 0 26 26" fill="none" xmlns="http://www.w3.org/2000/svg">
<g clip-path="url(#clip0_1480_430)">
<path d="M25.9862 5.89062C26.0117 5.73317 25.9898 5.57166 25.9232 5.42671C25.7185 4.52684 25.068 4.0625 23.9688 4.0625H2.84375C1.87687 4.0625 0.835225 4.41797 0.322969 5.1155C0.278662 5.14922 0.236412 5.18741 0.19825 5.23169C0.0345059 5.42059 -0.0227754 5.66356 0.0138125 5.89268C0.0065 5.95849 0 6.02471 0 6.09378V19.0938C0 20.4401 1.49784 21.9375 2.84375 21.9375H23.9688C25.3151 21.9375 26 20.4401 26 19.0938V6.09378C26 6.02187 25.9906 5.95887 25.9862 5.89062ZM2.84365 5.6875L23.9687 5.68747H23.9796L12.9999 14.4385L2.06449 5.72322C2.31311 5.67732 2.61904 5.6875 2.84365 5.6875ZM23.9687 20.3125H2.8437C2.39561 20.3125 1.62495 19.5422 1.62495 19.0937V7.45344L12.4678 16.1281C12.6205 16.2601 12.8102 16.3259 12.9999 16.3259C13.1955 16.3261 13.3845 16.2559 13.5325 16.1281L24.3749 7.45385V19.0937C24.3749 19.5422 24.4172 20.3125 23.9687 20.3125Z" fill="black"/>
</g>
<defs>
<clipPath id="clip0_1480_430">
<rect width="26" height="26" fill="white"/>
</clipPath>
</defs>
</svg>
