<svg id="e82thDlm7OW1" xmlns="http://www.w3.org/2000/svg" xmlns:xlink="http://www.w3.org/1999/xlink" viewBox="0 0 850 160" shape-rendering="geometricPrecision" text-rendering="geometricPrecision"><defs><filter id="e82thDlm7OW2-filter" x="-150%" width="400%" y="-150%" height="400%"><feGaussianBlur id="e82thDlm7OW2-filter-blur-0" stdDeviation="2,2" result="result"/></filter><filter id="e82thDlm7OW3-filter" x="-150%" width="400%" y="-150%" height="400%"><feGaussianBlur id="e82thDlm7OW3-filter-drop-shadow-0-blur" in="SourceAlpha" stdDeviation="2,2"/><feOffset id="e82thDlm7OW3-filter-drop-shadow-0-offset" dx="1" dy="1" result="tmp"/><feFlood id="e82thDlm7OW3-filter-drop-shadow-0-flood" flood-color="rgba(80,253,231,0.5)"/><feComposite id="e82thDlm7OW3-filter-drop-shadow-0-composite" operator="in" in2="tmp"/><feMerge id="e82thDlm7OW3-filter-drop-shadow-0-merge"><feMergeNode id="e82thDlm7OW3-filter-drop-shadow-0-merge-node-1"/><feMergeNode id="e82thDlm7OW3-filter-drop-shadow-0-merge-node-2" in="SourceGraphic"/></feMerge></filter><filter id="e82thDlm7OW20-filter" x="-150%" width="400%" y="-150%" height="400%"><feGaussianBlur id="e82thDlm7OW20-filter-blur-0" stdDeviation="1,1" result="result"/></filter></defs><path id="e82thDlm7OW2" d="M405.48161,102.737c-96.622697,28.7952-172.203623,35.5867-152.712,20.3745c23.54026-18.371951-14.241-42.6645-14.241-46.1076s95.197565-68.899045,130.325282-50.514643s158.966033,9.381378,153.003716,34.350942c-5.55065,23.245547,9.080031,37.918102,43.346999,50.5026c28.158628,10.341218,27.712752,12.219128,66.903876,19.8498s101.187835,12.836272,111.945624,11.348958s47.6055,9.582041,54.1245-16.333159s13.038-64.214551,6.519-68.784001-49.091577-19.396561-60.6435-19.396561-105.950574,10.619759-118.638537,18.092459-124.190725,32.288099-129.396325,35.044199-43.944638,32.4108-71.250638,34.881-214.3665,3.912-238.6182,3.912-61.5609-5.5308-71.6922-15.8862-46.8093-36.7545-46.4853-42.1404s24.7038-21.02643,35.0217-23.79735s34.3251-12.06087,58.9041-12.06087s68.7969-4.89066,79.0839,1.95516s74.734316,12.38676,98.7,19.39656s92.205,12.2235,104.781,16.1364q12.576,3.9129-38.981997,29.176206Z" transform="translate(.000003 0.000006)" opacity="0.45" filter="url('#e82thDlm7OW2-filter')" fill="none" stroke="#4af8dc" stroke-width="20" stroke-linecap="round" stroke-dasharray="0.01,300"/><g id="e82thDlm7OW3" transform="matrix(0 0 0 0 425 80)" filter="url('#e82thDlm7OW3-filter')"><path d="M8.12946,20.9718C3.65553,20.9718,0,24.6121,0,29.0673v4.2379c0,1.9559,1.6368,3.5859,3.60097,3.5859h6.71093v-13.257h17.7866c1.364,0,2.4552-1.0866,2.4552-2.4449v-5.3789c0-1.3583-1.0912-2.4449-2.4552-2.4449h-17.7866v-2.9339h24.2792c1.9642,0,3.601-1.63,3.601-3.58595v-6.737152h-34.59113C1.6368,0.108398,0,1.73835,0,3.6943v4.23789C0,12.3874,3.65553,16.0276,8.12946,16.0276h19.80534v4.9986h-19.80534v-.0544Zm-.49104,13.257h-4.03745c-.49104,0-.92752-.4346-.92752-.9236v-4.2379c0-2.8253,2.1824-5.1615,5.01953-5.4332v10.5947h-.05456Zm0-26.45961v5.59621c-2.78257-.2174-5.01953-2.5536-5.01953-5.43321v-4.23789c0-.48899.43648-.92364.92752-.92364h31.91769v4.02056c0,.48898-.4365.92364-.9275.92364h-26.89818v.05433Z" fill="#95fff1"/><path d="M10.3119,23.1341h-.50004v.5v12.757h-6.21089c-1.69,0-3.10097-1.4081-3.10097-3.0859v-4.2379c0-4.0101,3.16086-7.3208,7.12946-7.5792v.0381h.5h19.80534.5v-.5-4.9986-.5h-.5-19.80534C3.92969,15.5276,0.5,12.1093,0.5,7.93219v-4.23789c0-1.67783,1.41097-3.085902,3.10097-3.085902h34.09113v6.237152c0,1.67783-1.411,3.0859-3.101,3.0859h-24.2792-.50004v.50005v2.9339.5h.50004h17.7866c1.0898,0,1.9552.8647,1.9552,1.9449v5.3789c0,1.0801-.8654,1.9449-1.9552,1.9449h-17.7866Zm-2.11892.5v-.5502l-.54766.0525c-3.08476.2953-5.47187,2.8391-5.47187,5.9309v4.2379c0,.7671.66231,1.4236,1.42752,1.4236h4.03745.05456.5v-.5-10.5947Zm-.5935-9.7702l.53894.042v-.5405-5.15054h26.39818c.7652,0,1.4275-.65654,1.4275-1.42364v-4.02056-.5h-.5-31.91769c-.76521,0-1.42752.65654-1.42752,1.42364v4.23789c0,3.14501,2.44218,5.69431,5.48059,5.93171Z" fill="none" stroke="#07e3ca" stroke-opacity="0.5"/><path d="M30.9902,36.8367h6.4381c1.855,0,3.6009-.9779,4.5285-2.6079l2.4552-4.1292c.1091-.2173.3273-.326.5456-.326h14.4584l3.219,5.3789c.6002.9779,1.6914,1.6299,2.8372,1.6299h8.675c.7093,0,1.364-.3803,1.6914-.978s.3274-1.3583,0-1.9559l-1.855-3.1513c-1.3095-2.1732-3.7101-3.5859-6.2745-3.5859h-22.7515c-1.1458,0-2.237.5977-2.8372,1.63l-2.4552,4.1292c-.491.815-1.3094,1.3583-2.2369,1.3583h-6.4381L47.7947,4.07462c.4365-.81497,1.3094-1.30396,2.1824-1.30396h3.9283c.9275,0,1.8005.48899,2.237,1.30396L62.7987,15.43c.4911.815.4911,1.7386,0,2.5536-.491.815-1.3094,1.3039-2.2369,1.3039h-2.2916l-4.0374-6.5198c-.4911-.815-1.364-1.3039-2.2915-1.2496-.9276,0-1.8005.489-2.2916,1.3583l-3.0008,5.2158c-.491.815-.491,1.793,0,2.608.4911.815,1.3095,1.3039,2.2916,1.3039h11.6213c1.9096,0,3.6009-.9779,4.5285-2.6079.9275-1.6299.9275-3.5859,0-5.2158L58.4885,2.71633C57.561,1.08637,55.815,0.108398,53.96,0.108398h-3.9283c-1.8551,0-3.601,1.032302-4.5285,2.662262L28.6441,32.9248c-.4365.815-.4365,1.793.0545,2.608s1.3095,1.3039,2.2916,1.3039Zm36.7189-7.0088c1.6368,0,3.1645.8693,3.9829,2.282l1.2549,2.1189h-7.4747c-.2183,0-.4365-.1087-.5456-.326l-2.4007-4.0749h5.1832ZM49.0496,19.2875l3.0008-5.1615l3.1645,5.1615h-6.1653Z" fill="#95fff1"/><path d="M41.527,33.9733l-.0001-.0001-.0047.0083c-.8358,1.4687-2.4128,2.3552-4.0939,2.3552h-6.4381c-.8002,0-1.4592-.3914-1.8633-1.062-.3954-.6562-.399-1.4443-.0441-2.11L45.9377,3.01795c.0003-.00052.0006-.00103.0009-.00155.8409-1.4765,2.4225-2.408002,4.0931-2.408002h3.9283c1.6811,0,3.2581.886492,4.0939,2.355222l.0013.00223L64.6557,14.4276c.0002.0003.0003.0006.0005.0009.8398,1.4765.8396,3.2441-.0005,4.7204-.8372,1.4712-2.3612,2.3552-4.0939,2.3552h-11.6213c-.8002,0-1.4593-.3914-1.8633-1.062-.3954-.6562-.3954-1.4356,0-2.0918h.0001l.005-.0087l3.0008-5.2159v0l.002-.0034c.4024-.7124,1.109-1.1042,1.8562-1.1042h.0146l.0146-.0009c.7287-.0427,1.4318.3409,1.834,1.0086v0l.0032.0052l4.0374,6.5198.1467.2367h.2784h2.2916c1.1152,0,2.0903-.5917,2.6652-1.5459.5861-.9727.5867-2.0938.0017-3.0668-.0006-.001-.0011-.0019-.0017-.0029L56.5784,3.82969c-.531-.98327-1.5775-1.55903-2.673-1.55903h-3.9283c-1.049,0-2.0937.58284-2.6211,1.56399L30.5534,33.9854l-.4143.7434h.8511h6.4381c1.1341,0,2.1011-.664,2.6652-1.6002l.0015-.0026l2.4552-4.1292v0l.0025-.0042c.5082-.8742,1.4324-1.3813,2.4049-1.3813h22.7515c2.3818,0,4.6222,1.3143,5.8449,3.3418.0004.0007.0008.0014.0013.0022l1.8482,3.1397c.242.4471.2408,1.0233-.0034,1.4692-.2359.4307-.7184.7182-1.2529.7182h-8.675c-.959,0-1.8935-.55-2.4096-1.3891-.0004-.0008-.0009-.0016-.0014-.0024L59.845,29.5168l-.1455-.2432h-.2835-14.4584c-.3732,0-.7744.1856-.9832.5835L41.527,33.9733Zm31.4199.7555h.8772l-.447-.7548-1.2524-2.1148c-.0004-.0007-.0009-.0014-.0013-.0021-.9094-1.568-2.6025-2.5292-4.4143-2.5292h-5.1832-.8749l.4441.7538l2.3934,4.0625c.2087.3987.6102.5846.9837.5846h7.4747ZM48.6173,19.0362l-.4368.7513h.8691h6.1653.893l-.4668-.7613-3.1645-5.1615-.4376-.7139-.4209.7239-3.0008,5.1615Z" fill="none" stroke="#07e3ca" stroke-opacity="0.5"/><path d="M108.793,0.163086h-.055-1.909-24.3885c-1.8551.162996-3.3282,1.684284-3.3282,3.585904v4.23788c0,4.45523,3.6555,8.09543,8.1295,8.09543h.8729h19.7503.055c2.073-.2173,3.656-1.9559,3.656-4.0749c0-2.2819-1.801-4.07486-4.092-4.07486h-20.6787v5.54186c-2.7826-.2173-5.0196-2.5536-5.0196-5.37886v-4.40088c0-.48899.4365-.92364.9276-.92364h25.8617c4.528.48898,7.966,4.40088,7.966,9.07338c0,2.119-.71,4.1836-2.074,5.8135l-.654.815.654.815c1.31,1.63,2.074,3.6946,2.074,5.8135c0,4.6726-3.438,8.5845-7.966,9.0734h-25.8617c-.4911,0-.9276-.4346-.9276-.9236v-4.2379c0-2.8252,2.237-5.1615,5.0196-5.3788v5.5418h20.6787c2.237,0,4.092-1.8473,4.092-4.0749c0-2.1189-1.583-3.8575-3.656-4.0749h-.055-19.6957-.873c-4.4739,0-8.1294,3.6403-8.1294,8.0955v4.2379c0,1.9559,1.5822,3.5859,3.6009,3.5859h26.0252.055c5.947-.5977,10.421-5.6506,10.421-11.6814c0-2.3906-.71-4.7269-2.019-6.6285c1.309-1.9559,2.019-4.2922,2.019-6.6285-.055-6.1938-4.529-11.246663-10.476-11.844314ZM89.4242,10.4318h18.0598c.763,0,1.418.652,1.418,1.467c0,.7063-.491,1.3583-1.2,1.4126h-18.2233v-2.8796h-.0545Zm0,13.2027h18.2228c.71.1086,1.201.7063,1.201,1.4126c0,.815-.655,1.4669-1.419,1.4669h-18.0594v-2.8795h.0546Z" fill="#95fff1"/><path d="M107.484,28.6763h-20.1787v-5.0418-.5406l-.5389.0421c-3.0353.237-5.4807,2.7835-5.4807,5.8773v4.2379c0,.7671.6624,1.4236,1.4276,1.4236h25.8617.027l.026-.0029c4.793-.5174,8.413-4.6525,8.413-9.5705c0-2.2379-.806-4.412-2.184-6.1266l-.403-.5019.4-.498c1.441-1.7241,2.187-3.9023,2.187-6.1305c0-4.91795-3.62-9.05304-8.413-9.57049l-.026-.00289h-.027-25.8617c-.7652,0-1.4276.65653-1.4276,1.42364v4.40088c0,3.09386,2.4454,5.64026,5.4807,5.87736l.5389.0421v-.5406-5.04186h20.1787c2.017,0,3.592,1.57106,3.592,3.57486c0,1.8543-1.376,3.3729-3.183,3.5749h-.028-19.7503-.8729c-4.1998,0-7.6295-3.4183-7.6295-7.59542v-4.23789c0-1.62368,1.2523-2.934983,2.8509-3.085904h24.3658h1.909.03c5.666.582184,9.947,5.403534,10.001,11.346614-.001,2.2362-.681,4.4748-1.935,6.3481l-.189.2821.193.2796c1.25,1.8147,1.931,4.0513,1.931,6.3449c0,5.7729-4.275,10.5986-9.947,11.1814h-.029-26.0252c-1.7396,0-3.1009-1.4032-3.1009-3.0859v-4.2379c0-4.1771,3.4297-7.5955,7.6294-7.5955h.873h19.6957.028c1.807.202,3.183,1.7207,3.183,3.5749c0,1.9495-1.63,3.5749-3.592,3.5749Zm.218-14.8649h.019l.019-.0015c1.023-.0783,1.662-1.0005,1.662-1.9111c0-1.0808-.868-1.96699-1.918-1.96699h-17.5053-.5-.0545v.49999h-.4455v2.8796.5h.5h18.2233Zm.021,9.3288l-.038-.0057h-.038-18.2228-.0546-.5v.5v2.8795.5h.5h18.0594c1.05,0,1.919-.8861,1.919-1.9669c0-.9445-.663-1.7595-1.625-1.9069Z" fill="none" stroke="#07e3ca" stroke-opacity="0.5"/><path d="M166.735,0v37h2.674v-34.33774h5.565v29.39354c0,2.6079,2.128,4.6725,4.692,4.6725h21.606c1.364,0,2.455-1.0866,2.455-2.4449v-7.8781h-26.134v-26.4053h-10.858Zm34.373,29.0675v4.9986h-21.442c-1.146,0-2.073-.9237-2.073-2.0646v-2.934h23.515v0Z" fill="#95fff1"/><path d="M169.409,2.16226h-.5v.5v33.83774h-1.674v-36h9.858v25.9053.5h.5h25.634v7.3781c0,1.0802-.865,1.9449-1.955,1.9449h-21.606c-2.294,0-4.192-1.8465-4.192-4.1725v-29.39354-.5h-.5-5.565ZM201.108,34.5661h.5v-.5-4.9985h-.5v-.5h-23.515-.5v.5v2.9339c0,1.4191,1.153,2.5646,2.573,2.5646h21.442Z" fill="none" stroke="#07e3ca" stroke-opacity="0.5"/><path d="M140.547,37h3.437c10.203,0,18.496-8.2584,18.496-18.4185v-18.309841h-6.656c-1.964,0-3.601,1.629961-3.601,3.585901v14.83264c0,4.5638-3.71,8.2584-8.239,8.2584h-3.437c-4.583,0-8.239-3.6946-8.239-8.2584v-18.6902h-2.673v18.6902c0,5.9765,4.91,10.8663,10.912,10.8663h3.437c6.002,0,10.912-4.8898,10.912-10.8663v-14.83264c0-.48898.437-.92364.928-.92364h3.983v15.64758c0,8.6931-7.093,15.7562-15.823,15.7562h-3.437c-8.73,0-15.823-7.0631-15.823-15.7562v-18.5815h-2.673v18.5815C121.996,28.7416,130.344,37,140.547,37Z" fill="#95fff1"/><path d="M160.307,2.93392v-.5h-.5-3.983c-.765,0-1.428.65653-1.428,1.42364v14.83264c0,5.6984-4.684,10.3663-10.412,10.3663h-3.437c-5.728,0-10.412-4.6679-10.412-10.3663v-18.1902h1.673v18.1902c0,4.8377,3.877,8.7584,8.739,8.7584h3.437c4.805,0,8.739-3.9186,8.739-8.7584v-14.83264c0-1.67783,1.411-3.085901,3.101-3.085901h6.156v17.809841c0,9.8819-8.067,17.9185-17.996,17.9185h-3.437c-9.931,0-18.049-8.0384-17.996-17.9158v-.0027-18.0815h1.673v18.0815c0,8.9712,7.319,16.2562,16.323,16.2562h3.437c9.004,0,16.323-7.285,16.323-16.2562v-15.64758Z" fill="none" stroke="#07e3ca" stroke-opacity="0.5"/><path d="M273.619,37h3.437c10.203,0,18.496-8.2584,18.496-18.4185v-18.309841h-6.656c-1.964,0-3.601,1.629961-3.601,3.585901v14.83264c0,4.5638-3.71,8.2584-8.239,8.2584h-3.437c-4.583,0-8.239-3.6946-8.239-8.2584L265.38,0h-2.673v18.6902c0,5.9765,4.91,10.8663,10.912,10.8663h3.437c6.002,0,10.912-4.8898,10.912-10.8663v-14.83264c0-.48898.437-.92364.928-.92364h3.983v15.64758c0,8.6931-7.093,15.7562-15.823,15.7562h-3.437c-8.73,0-15.823-7.0631-15.823-15.7562v-18.5815h-2.673v18.5815C255.123,28.7416,263.416,37,273.619,37Z" fill="#95fff1"/><path d="M293.379,2.93392v-.5h-.5-3.983c-.765,0-1.428.65653-1.428,1.42364v14.83264c0,5.6984-4.684,10.3663-10.412,10.3663h-3.437c-5.728,0-10.412-4.6679-10.412-10.3663v-18.1902h1.673v18.1902c0,4.8377,3.877,8.7584,8.739,8.7584h3.437c4.805,0,8.739-3.9186,8.739-8.7584v-14.83264c0-1.67783,1.411-3.085901,3.101-3.085901h6.156v17.809841c0,9.8819-8.067,17.9185-17.996,17.9185h-3.437c-9.929,0-17.996-8.0366-17.996-17.9185v-18.0815h1.673v18.0815c0,8.9712,7.319,16.2562,16.323,16.2562h3.437c9.004,0,16.323-7.285,16.323-16.2562v-15.64758Z" fill="none" stroke="#07e3ca" stroke-opacity="0.5"/><path d="M325.451,34.2288h-22.206v2.6623h22.206c5.347,0,11.512-2.9883,12.385-9.4538.873-6.0308-2.455-10.0514-9.821-12.0616-1.855-.489-4.692-1.0867-7.693-1.6843-3.164-.652-6.82-1.3583-9.657-2.0646-.491-.1087-.437-.5434-.437-.652.055-.326.273-.489.764-.489h21.115c1.964,0,3.601-1.62997,3.601-3.58592v-6.791482h-1.309c0,0-19.26,0-23.407,0-3.055,0-5.565.760646-7.474,2.173272-2.237,1.68429-3.656,4.12922-3.983,6.84582-.655,5.54181,2.018,9.56241,7.474,11.35531c1.473.489,4.256,1.0324,7.802,1.7387c3.274.6519,7.366,1.4669,11.513,2.4449.709.163,1.091.5433,1.036,1.0866-.054.489-.545,1.0323-1.418,1.0323h-22.643v2.6623h22.643c2.4,0,3.874-1.6843,4.092-3.3686.163-1.5756-.71-3.3685-3.056-3.9662-4.201-.978-8.293-1.7929-11.566-2.4449-3.492-.7063-6.22-1.2497-7.53-1.63-4.31-1.4126-6.165-4.2379-5.674-8.53009.218-1.95595,1.255-3.7489,2.946-4.99853c1.473-1.08664,3.383-1.62996,5.893-1.62996c3.492,0,17.677,0,22.097,0v4.07489c0,.48899-.437.92364-.928.92364h-21.224c-1.8,0-3.164,1.14097-3.382,2.82525-.219,1.63.818,3.1513,2.4,3.5316c2.892.7606,6.547,1.4669,9.766,2.1189c3.001.5977,5.784,1.141,7.53,1.63c6.11,1.6299,8.566,4.4552,7.911,9.1277-.655,4.8356-5.565,7.1175-9.766,7.1175Z" fill="#95fff1"/><path d="M334.399,0.108398c0,.5-.001.5-.001.5v0h-.001-.002-.002-.002-.003-.003-.004-.004-.005-.005-.005-.006-.006-.007-.007-.007-.008-.009-.008-.009-.01-.01-.01-.011-.011-.012-.012-.012-.013-.013-.013-.014-.014-.015-.015-.016-.015-.017-.016-.017-.018-.017-.018-.019-.019-.019-.02-.019-.021-.02-.021-.022-.022-.022-.022-.023-.023-.024-.023-.025-.024-.025-.025-.026-.026-.026-.027-.027-.027-.027-.028-.029-.028-.029-.029-.03-.03-.03-.03-.031-.031-.032-.032-.032-.032-.033-.033-.033-.034-.034-.034-.034-.035-.035-.036-.035-.036-.036-.037-.037-.037-.037-.038-.038-.038-.039-.038-.04-.039-.039-.04-.04-.041-.041-.04-.042-.041-.042-.042-.042-.042-.043-.043-.043-.044-.044-.044-.044-.044-.045-.045-.045-.045-.046-.046-.046-.046-.047-.047-.047-.047-.047-.048-.048-.048-.048-.049-.048-.049-.049-.05-.049-.05-.05-.05-.051-.05-.051-.051-.051-.051-.052-.052-.052-.052-.052-.052-.053-.053-.053-.053-.053-.054-.054-.054-.054-.054-.054-.055-.054-.055-.055-.055-.056-.055-.056-.056-.056-.056-.056-.056-.057-.057-.056-.057-.057-.058-.057-.058-.057-.058-.058-.058-.058-.058-.059-.058-.059-.059-.058-.059-.059-.06-.059-.059-.06-.06-.059-.06-.06-.06-.06-.061-.06-.06-.061-.06-.061-.061-.061-.061-.061-.061-.061-.061-.062-.061-.062-.061-.062-.062-.062-.061-.062-.062-.062-.062-.063-.062-.062-.062-.063-.062-.063-.062-.063-.062-.063-.063-.062-.063-.063-.063-.063-.063-.063-.063-.063-.063-.063-.063-.063-.063-.063-.063-.063-.064-.063-.063-.063-.063-.064-.063-.063-.063-.064-.063-.063-.063-.063-.064-.063-.063-.063-.063-.063-.064-.063-.063-.063-.063-.063-.063-.063-.063-.063-.063-.062-.063-.063-.063-.062-.063-.063-.062-.063-.062-.063-.062-.062-.063-.062-.062-.062-.062-.062-.062-.062-.061-.062-.062-.061-.062-.061-.062-.061-.061-.061-.061-.061-.061-.061-.06-.061-.061-.06-.06-.06-.061-.06-.06-.059-.06-.06-.059-.06-.059-.059-.059-.059-.059-.059-.058-.059-.058-.058-.058-.058-.058-.058-.058-.057-.057-.058-.057-.057-.056-.057-.057-.056-.056-.056-.056-.056-.055-.056-.055-.055-.055-.055-.055-.054-.055-.054-.054-.054-.053-.054-.053-.053-.053-.053-.053-.052-.052-.052-.052-.052-.051-.052-.051-.051-.05-.051-.05-.05-.05-.05-.05-.049-.049-.049-.049-.048-.048-.048-.048-.048-.047-.047-.047-.047-.046-.047-.046-.045-.046-.045-.045-.045-.045-.044-.045-.043-.044-.043-.044-.043-.042-.043-.042-.042-.041-.042-.041-.041-.04-.041-.04-.04-.039-.039-.039-.039-.039-.038-.038-.037-.038-.037-.036-.037-.036-.036-.035-.036-.035-.035-.034-.034-.034-.033-.034-.033-.032-.033-.032-.031-.032-.031-.03-.031-.03-.03-.029-.029-.029-.029-.028-.028-.027-.027-.027-.027-.026-.026-.025-.025-.025-.025c-2.971,0-5.37.738772-7.175,2.073982-2.13,1.60399-3.475,3.92662-3.786,6.50437-.316,2.67535.175,4.94245,1.367,6.74885c1.193,1.8084,3.122,3.2029,5.767,4.0722l.002.0005c1.368.4541,3.921.9622,7.246,1.624.164.0326.329.0655.496.0988l.003.0005c3.272.6517,7.37,1.468,11.525,2.4478m7.962-24.071002L326.324,24.6664m8.075-24.558002v.5h.809v6.291482c0,1.67783-1.411,3.0859-3.101,3.0859h-21.115c-.288,0-.581.04562-.822.20572-.264.1753-.39.4354-.435.7007l-.007.041v.0416c0-.0041-.021.2523.063.4918.102.2907.342.5522.759.6468c2.239.5573,4.986,1.1148,7.59,1.6431.708.1439,1.407.2856,2.081.4246l.003.0006c3.001.5977,5.823,1.1924,7.661,1.6769c3.627.9902,6.19,2.4574,7.743,4.3567c1.54,1.8837,2.133,4.2489,1.713,7.1504l-.001.0047c-.825,6.1141-6.672,9.0207-11.889,9.0207h-21.706v-1.6623h21.706c2.183,0,4.557-.5912,6.482-1.8244c1.934-1.2386,3.428-3.1364,3.779-5.7248.342-2.4439-.125-4.4736-1.536-6.1007-1.391-1.6037-3.644-2.752-6.738-3.5776-1.649-.4615-4.197-.9682-6.953-1.5164-.202-.0403-.406-.0808-.61-.1215-.447-.0906-.902-.1821-1.362-.2745-2.859-.575-5.9-1.1866-8.376-1.8378v-.0001l-.01-.0025c-1.33-.3197-2.207-1.5999-2.022-2.979v-.0021c.184-1.41349,1.316-2.38954,2.887-2.38954h21.224c.765,0,1.428-.65656,1.428-1.42365v-4.07489-.5h-.5-.026-.027-.026-.027-.027-.027-.027-.028-.027-.028-.029-.028-.029-.028-.029-.03-.029-.03-.03-.03-.03-.031-.03-.031-.031-.031-.032-.032-.032-.032-.032-.032-.033-.033-.033-.033-.034-.033-.034-.034-.034-.035-.034-.035-.035-.035-.035-.036-.036-.035-.036-.037-.036-.037-.036-.037-.037-.037-.038-.037-.038-.038-.038-.038-.039-.038-.039-.039-.039-.039-.04-.039-.04-.04-.04-.04-.04-.041-.04-.041-.041-.041-.041-.042-.041-.042-.042-.042-.042-.042-.042-.043-.043-.042-.043-.043-.044-.043-.043-.044-.044-.044-.044-.044-.044-.044-.045-.045-.044-.045-.045-.045-.046-.045-.046-.045-.046-.046-.046-.046-.046-.046-.047-.046-.047-.047-.046-.047-.047-.048-.047-.047-.048-.047-.048-.048-.048-.048-.048-.048-.048-.049-.048-.049-.048-.049-.049-.049-.049-.049-.049-.049-.05-.049-.05-.049-.05-.05-.049-.05-.05-.05-.051-.05-.05-.05-.051-.05-.051-.051-.05-.051-.051-.051-.051-.051-.051-.051-.051-.052-.051-.051-.052-.051-.052-.052-.051-.052-.052-.052-.051-.052-.052-.052-.052-.053-.052-.052-.052-.052-.053-.052-.053-.052-.052-.053-.053-.052-.053-.052-.053-.053-.053-.052-.053-.053-.053-.053-.053-.052-.053-.053-.053-.053-.053-.053-.054-.053-.053-.053-.053-.053-.053-.053-.054-.053-.053-.053-.053-.053-.054-.053-.053-.053-.054-.053-.053-.053-.053-.054-.053-.053-.053-.053-.053-.054-.053-.053-.053-.053-.053-.053-.053-.053-.053-.053-.053-.053-.053-.053-.053-.053-.053-.053-.052-.053-.053-.053-.052-.053-.053-.052-.053-.052-.053-.052-.053-.052-.052-.053-.052-.052-.052-.052-.052-.052-.052-.052-.052-.052-.052-.051-.052-.052-.051-.052-.051-.052-.051-.051-.051-.051-.052-.051-.051-.05-.051-.051-.051-.05-.051-.05-.051-.05-.05-.051-.05-.05-.05-.05-.05-.049-.05-.05-.049-.049-.05-.049-.049-.049-.049-.049-.049-.049-.048-.049-.048-.049-.048-.048-.048-.048-.048-.048-.047-.048-.047-.048-.047-.047-.047-.047-.047-.047-.046-.047-.046-.046-.047-.046-.046-.045-.046-.046-.045-.046-.045-.045-.045-.045-.044-.045-.045-.044-.044-.044-.044-.044-.044-.043-.044-.043-.043-.043-.043-.043-.043-.042-.042-.043-.042-.042-.041-.042-.042-.041-.041-.041-.041-.041-.04-.041-.04-.04-.04-.04-.04-.039-.04-.039-.039-.039-.038-.039-.038-.038-.039-.037-.038-.038-.037-.037-.037-.037-.037-.036-.037-.036-.036-.036-.035-.036-.035-.035-.035-.035-.034-.034-.035-.034-.033-.034-.033-.034-.033-.032-.033-.033-.032-.032-.032-.031-.032-.031-.031-.031-.031-.03-.03-.03-.03-.03-.029-.029-.029-.029-.029-.028-.028-.028-.028-.027-.028-.027-.027-.026-.027-.026-.026-.025-.026-.025-.025-.025-.025-.024-.024-.024-.024-.023-.024-.023-.022-.023-.022-.022-.022-.021-.022-.021-.021-.02c-2.582,0-4.606.55968-6.189,1.72759l-.001.00022c-1.798,1.32889-2.911,3.24507-3.146,5.34452-.255,2.22935.094,4.13505,1.117,5.67735c1.021,1.54,2.672,2.6542,4.899,3.384l.008.0027.008.0024c1.245.3617,3.728.8634,6.876,1.4997.228.046.459.0927.693.1401l.002.0003c3.273.6519,7.355,1.465,11.546,2.4404m7.539-22.490202L326.86,22.5986m-.423,1.5808c.001.0001.001.0002.001.0004l-.114.4866m.113-.487c0-.0001-.001-.0002-.001-.0003l-.112.4873m.113-.487c.41.0945.784.2638,1.051.5401.282.2915.411.6688.37,1.0835l-.001.0055v0c-.086.7768-.824,1.4768-1.915,1.4768h-22.143m22.525-2.6189c.709.163,1.091.5433,1.036,1.0866-.054.489-.545,1.0323-1.418,1.0323h-22.143v.5m0,0v1.6623m0-1.6623h-.5m0,0v1.6623h.5m-.5-1.6623l12.113-7.6174c3.273.652,7.365,1.4669,11.566,2.4449c2.346.5977,3.219,2.3906,3.056,3.9662-.218,1.6843-1.692,3.3686-4.092,3.3686h-22.143v-.5m-.5-1.6623l23.561-4.6867m-23.061,6.349h22.143c2.132,0,3.404-1.4791,3.595-2.9266.136-1.3355-.587-2.8879-2.677-3.4224" fill="none" stroke="#07e3ca" stroke-opacity="0.5"/><path d="M224.46,36.8367h2.728v-10.7577h-2.728c-4.419,0-8.02-3.4772-8.238-7.7694.218-4.3466,3.819-7.7695,8.238-7.7695h7.966c4.419,0,8.02,3.4773,8.239,7.7695-.219,4.3465-3.82,7.7694-8.239,7.7694h-1.364v2.6623h1.364c5.729,0,10.421-4.4009,10.858-9.9971h.054v-.815h-.054c-.437-5.5961-5.129-9.99701-10.858-9.99701h-7.966c-5.728,0-10.421,4.40091-10.857,9.99701h-.055v.815h.055c.436,5.5962,5.129,9.9971,10.857,9.9971h.109v5.4875h-.109c-8.784,0-15.877-7.0631-16.04-15.7562.109-8.69313,7.256-15.70194,15.986-15.70194h8.02c8.73,0,15.877,7.00881,15.986,15.70194-.109,8.6931-7.256,15.7562-15.986,15.7562h-1.364v2.6623h1.364c10.148,0,18.441-8.0955,18.66-18.1469v-.4346c-.273-10.10575-8.512-18.201202-18.66-18.201202h-7.966c-10.148,0-18.441,8.095442-18.659,18.146802v.4347c.218,10.0514,8.511,18.1468,18.659,18.1468Z" fill="#95fff1"/><path d="M214.101,18.7053l-.028-.3686.028-.3686c.417-5.3363,4.892-9.53591,10.359-9.53591h7.966c5.467,0,9.943,4.19961,10.359,9.53591l.029.3686-.029.3686c-.416,5.3364-4.892,9.536-10.359,9.536h-.864v-1.6623h.864c4.683,0,8.506-3.629,8.738-8.2444l.001-.0252-.001-.0252c-.232-4.5584-4.052-8.2441-8.738-8.2441h-7.966c-4.683,0-8.506,3.629-8.738,8.2444l-.001.0252.001.0253c.232,4.5584,4.053,8.244,8.738,8.244h2.228v9.7577h-2.228c-9.876,0-17.944-7.8775-18.159-17.6523v-.4237c.215-9.77472,8.283-17.652302,18.159-17.652302h7.966c9.873,0,17.891,7.874092,18.16,17.707902v.4225c-.215,9.7747-8.283,17.6523-18.16,17.6523h-.864v-1.6623h.864c9.003,0,16.374-7.2827,16.486-16.25v0-.0125c-.112-8.96953-7.485-16.19564-16.486-16.19564h-8.02c-9.001,0-16.374,7.22611-16.486,16.19564v.0078.0079c.169,8.9631,7.481,16.2468,16.54,16.2468h.109.5v-.5-5.4875-.5h-.5-.109c-5.467,0-9.942-4.1996-10.359-9.536Z" fill="none" stroke="#07e3ca" stroke-opacity="0.5"/></g><path id="e82thDlm7OW20" d="M398.96261,85.9484q-289.0842,46.71357-319.041,3.0639c-29.9568-43.64967,67.818-44.62761,77.1207-44.13864s202.88696,65.241478,197.682099,65.329139c-16.595042.279495-13.352746,14.412861,286.812201,10.6269c4.859612-.061294,125.173801,29.177697,119.224545-17.1138s33.529039-58.020299-31.977253-47.5956-149.944832,14.430298-175.503062,28.404598-26.027996,36.373494-73.622047,41.520599-156.674183,13.0002-164.693183,8.6394-50.462367-19.5609-40.617-47.1063s36.162715-47.235,65.334-51.50592s149.055-12.516249,188.04-14.747221s101.793-1.900784,118.674,5.163803s53.052,20.988937,45.033,43.397737q-8.019,22.4088-292.467,16.061405Z" transform="translate(0 0.000005)" opacity="0.5" filter="url('#e82thDlm7OW20-filter')" fill="none" stroke="#3efff9" stroke-width="10" stroke-linecap="round" stroke-dasharray="0.01,300"/><script>!function(t,e,o,M,N,z,r,s,n,c,y,v,i,a){(i=document.getElementById(e.root)).svgatorPlayer={ready:function(t){return a=[],function(e){return e?(a.push(e),t.svgatorPlayer):a}}(i)},z[M]=z[M]||{},z[M][t]=z[M][t]||[],z[M][t].push(e),(y=r.createElementNS(&quot;http://www.w3.org/2000/svg&quot;,s)).async=!0,y.setAttributeNS(&quot;http://www.w3.org/1999/xlink&quot;,&quot;href&quot;,[o,t,&quot;.&quot;,&quot;j&quot;,&quot;s&quot;,&quot;?&quot;,&quot;v&quot;,&quot;=&quot;,N].join(&quot;&quot;)),y.setAttributeNS(null,&quot;src&quot;,[o,t,&quot;.&quot;,&quot;j&quot;,&quot;s&quot;,&quot;?&quot;,&quot;v&quot;,&quot;=&quot;,N].join(&quot;&quot;)),(v=r.getElementsByTagName(s)[0]).parentNode.insertBefore(y,v)}(&quot;91c80d77&quot;,{root:&quot;e82thDlm7OW1&quot;,version:&quot;2022-05-04&quot;,animations:[{elements:{e82thDlm7OW2:{opacity:[{t:0,v:.45},{t:2500,v:.4},{t:2900,v:0}],&quot;stroke-dashoffset&quot;:[{t:0,v:0,e:[.47,0,.745,.715]},{t:3e3,v:193.5483870967742}]},e82thDlm7OW3:{transform:{data:{o:{x:425,y:80,type:&quot;corner&quot;},t:{x:-168.98613,y:-18.5}},keys:{s:[{t:0,v:{x:0,y:0},e:[.445,.05,.55,.95]},{t:1e3,v:{x:2,y:2},e:[.445,.05,.55,.95]},{t:1800,v:{x:1,y:1},e:[.445,.05,.55,.95]},{t:3e3,v:{x:3,y:3}}]}},opacity:[{t:0,v:1,e:[.445,.05,.55,.95]},{t:1800,v:1,e:[.445,.05,.55,.95]},{t:2800,v:0}]},e82thDlm7OW20:{opacity:[{t:0,v:.5},{t:2500,v:.4},{t:2900,v:0}],&quot;stroke-dashoffset&quot;:[{t:10,v:0,e:[.47,0,.745,.715]},{t:3e3,v:300}]}},s:&quot;MDIA1MzhiVzMyNIzQ4NTgyNzE4ENDc5N2Y3ZTMFyNGFMNDM0MFQI0MDQwM2MzMSjc0Nzk4Mjc1EQzczODQ3OTdTmN2UzMjRhNDKEzY1AzMjc5ONDQ3NTgyNzE4MNDc5N2Y3ZTgFzMzI0YTQxM2KMzMjc2Nzk3YLzdjMzI0YVU0HMTNjMzI3MTdWjODQ3NTgyN2HVHNzE4NDc1MYzI0YTc2NzE3CYzgzNzUzYzMIyQjgzODA3NTFc1Rzc0MzI0YOTQxOGQ/&quot;}],options:&quot;MDKAxMDgyMjk3YLTdiNjg3OTdiOMjk0MTI5NzMT3NjY4RjZiMjIk4NA|&quot;},&quot;https://cdn.svgator.com/ply/&quot;,&quot;__SVGATOR_PLAYER__&quot;,&quot;2022-05-04&quot;,window,document,&quot;script&quot;);</script></svg>