<svg width="28" height="18" viewBox="0 0 28 18" fill="none" xmlns="http://www.w3.org/2000/svg">
<path d="M0.285156 13.491C0.285156 15.7048 1.72927 17.1429 3.90493 17.1429C5.00702 17.1429 6.0996 16.6699 6.89766 15.6859L8.61726 13.614C8.86429 13.3207 9.14934 13.1788 9.43439 13.1788H18.5646C18.8495 13.1788 19.1346 13.3207 19.3816 13.614L21.1013 15.6859C21.8993 16.6699 22.9919 17.1429 24.094 17.1429C26.2697 17.1429 27.7137 15.7048 27.7137 13.491C27.7137 12.5449 27.4952 11.4569 27.1247 10.2365C26.5451 8.29709 25.5286 5.65752 24.5595 3.614C23.7425 1.91107 23.3244 1.13529 21.3103 0.681173C19.5241 0.274361 17.0445 0 14.0042 0C10.964 0 8.47481 0.274361 6.68865 0.681173C4.67449 1.13529 4.25646 1.91107 3.43939 3.614C2.47032 5.65752 1.45375 8.29709 0.874201 10.2365C0.503673 11.4569 0.285156 12.5449 0.285156 13.491ZM1.73877 13.5478C1.73877 12.9518 1.87178 12.2328 2.1758 11.2015C2.81235 9.02554 3.91443 6.20624 4.87401 4.11542C5.33955 3.10312 5.59606 2.48817 6.83116 2.20435C8.55078 1.79754 11.002 1.52318 14.0042 1.52318C16.9969 1.52318 19.4481 1.79754 21.1677 2.20435C22.4028 2.48817 22.6498 3.10312 23.1249 4.11542C24.1035 6.20624 25.1581 9.03498 25.8231 11.2015C26.1366 12.2328 26.2602 12.9518 26.2602 13.5478C26.2602 14.8534 25.3385 15.6764 24.113 15.6764C23.3909 15.6764 22.6879 15.298 22.1368 14.6263L20.3507 12.4787C19.8947 11.93 19.5147 11.6556 18.6311 11.6556H9.36783C8.4843 11.6556 8.10425 11.93 7.64822 12.4787L5.86208 14.6263C5.31104 15.298 4.60799 15.6764 3.88593 15.6764C2.66034 15.6764 1.73877 14.8534 1.73877 13.5478Z" fill="#FF003A"/>
<path d="M6.30859 6.66941C6.30859 7.16136 6.60312 7.46411 7.09715 7.46411H8.80727V9.11974C8.80727 9.6022 9.08283 9.90494 9.55784 9.90494C10.0234 9.90494 10.3084 9.6022 10.3084 9.11974V7.46411H11.9141C12.4461 7.46411 12.7596 7.16136 12.7596 6.66941C12.7596 6.19637 12.4461 5.90309 11.9141 5.90309H10.3084V4.24746C10.3084 3.76496 10.0234 3.47168 9.55784 3.47168C9.08283 3.47168 8.80727 3.76496 8.80727 4.24746V5.90309H7.09715C6.60312 5.90309 6.30859 6.19637 6.30859 6.66941ZM19.9041 6.5748C20.6737 6.5748 21.2913 5.95985 21.2913 5.20299C21.2913 4.43667 20.6737 3.82172 19.9041 3.82172C19.1441 3.82172 18.517 4.43667 18.517 5.20299C18.517 5.95985 19.1441 6.5748 19.9041 6.5748ZM17.1109 9.37518C17.871 9.37518 18.498 8.76025 18.498 8.00337C18.498 7.23705 17.871 6.6221 17.1109 6.6221C16.3509 6.6221 15.7238 7.23705 15.7238 8.00337C15.7238 8.76025 16.3509 9.37518 17.1109 9.37518Z" fill="#FF003A"/>
</svg>
