<svg xmlns="http://www.w3.org/2000/svg" width="28" height="28" fill="none"><path fill="#FF003A" d="M2 18.805C2 20.742 3.264 22 5.167 22c.965 0 1.92-.414 2.619-1.275l1.505-1.813c.216-.256.465-.38.715-.38h7.988c.25 0 .5.124.715.38l1.505 1.813c.698.861 1.654 1.275 2.619 1.275C24.736 22 26 20.742 26 18.805c0-.828-.191-1.78-.515-2.848-.508-1.697-1.397-4.007-2.245-5.795-.715-1.49-1.08-2.169-2.843-2.566C18.834 7.24 16.664 7 14.004 7c-2.66 0-4.838.24-6.4.596-1.763.397-2.13 1.076-2.844 2.566-.848 1.788-1.737 4.098-2.245 5.795C2.191 17.025 2 17.977 2 18.805Zm1.272.05c0-.522.116-1.151.382-2.054.557-1.904 1.522-4.37 2.361-6.2.408-.886.632-1.424 1.713-1.672 1.504-.356 3.65-.596 6.276-.596 2.619 0 4.764.24 6.268.596 1.08.248 1.297.786 1.713 1.672.856 1.83 1.779 4.305 2.36 6.2.275.903.383 1.532.383 2.053 0 1.143-.806 1.863-1.879 1.863-.631 0-1.247-.331-1.729-.919l-1.563-1.88c-.399-.48-.731-.72-1.504-.72H9.947c-.773 0-1.105.24-1.504.72l-1.563 1.88c-.482.588-1.098.919-1.73.919-1.072 0-1.878-.72-1.878-1.863Z"/><path fill="#FF003A" d="M7.27 12.836c0 .43.258.695.69.695h1.497v1.45c0 .421.241.686.657.686.407 0 .656-.265.656-.687v-1.449h1.405c.466 0 .74-.264.74-.695 0-.414-.274-.67-.74-.67H10.77v-1.45c0-.421-.25-.678-.656-.678-.416 0-.657.257-.657.679v1.449H7.96c-.432 0-.69.256-.69.67Zm11.897-.083c.673 0 1.213-.538 1.213-1.2 0-.67-.54-1.209-1.213-1.209-.666 0-1.214.539-1.214 1.209 0 .662.549 1.2 1.214 1.2Zm-2.445 2.45a1.21 1.21 0 0 0 1.214-1.2c0-.67-.548-1.208-1.213-1.208s-1.214.538-1.214 1.208c0 .663.549 1.2 1.213 1.2Z"/></svg>