<svg width="26" height="25" viewBox="0 0 26 25" fill="none" xmlns="http://www.w3.org/2000/svg">
<path d="M25.3247 24.9948H20.0449C19.6714 24.9948 19.3696 24.692 19.3696 24.3172V15.7854C19.3696 12.8594 17.8654 12.8594 17.3692 12.8594C16.0339 12.8594 15.466 13.9169 15.2818 14.3738C15.1948 14.5791 15.1539 14.9282 15.1539 15.4159V24.3224C15.1539 24.6971 14.852 25 14.4786 25H9.19365C9.01459 25 8.84064 24.9281 8.71274 24.7998C8.58485 24.6715 8.51322 24.4969 8.51833 24.3172C8.51833 24.1735 8.58995 9.86663 8.51833 8.4036C8.5081 8.21878 8.57459 8.03912 8.70251 7.90565C8.83043 7.77218 9.00436 7.69516 9.19363 7.69516H14.4786C14.852 7.69516 15.1539 7.99801 15.1539 8.37276V8.77317C16.0441 7.97749 17.3282 7.3204 19.2416 7.3204C23.4726 7.3204 26 10.2567 26 15.1745V24.3172C26 24.692 25.6981 24.9948 25.3247 24.9948ZM20.7202 23.6396L24.6545 23.6395V15.1745C24.6545 11.042 22.6848 8.67556 19.2468 8.67556C16.9496 8.67556 15.8343 9.82545 15.1334 10.8778C15.0516 11.155 14.7906 11.3604 14.4837 11.3604H14.4479C14.2023 11.3604 13.9772 11.2269 13.8596 11.0113C13.7675 10.8419 13.747 10.6468 13.8084 10.4671V9.0452H9.88434C9.92015 11.8737 9.88434 21.0267 9.87411 23.6345H13.8033V15.4107C13.8033 14.7279 13.8749 14.2351 14.0284 13.8604C14.6218 12.3871 15.8701 11.499 17.3641 11.499C19.4924 11.499 20.7151 13.0596 20.7151 15.7803V23.6396H20.7202L20.7202 23.6396ZM6.27237 24.9947H0.987434C0.613958 24.9947 0.312131 24.6919 0.312131 24.3171V8.3727C0.312131 7.99796 0.613958 7.69509 0.987434 7.69509H6.27237C6.64584 7.69509 6.94767 7.99796 6.94767 8.37268V24.3171C6.94767 24.6919 6.64584 24.9948 6.27237 24.9948V24.9947ZM1.66279 23.6395H5.59704V9.05027H1.66281V23.6395L1.66279 23.6395ZM3.63245 6.87371L3.59661 6.87369C1.51436 6.87369 0 5.42606 0 3.43428C0 1.44765 1.53994 0 3.66824 0C5.76072 0 7.25465 1.40655 7.29559 3.41888C7.29559 5.42606 5.75564 6.87371 3.63245 6.87371ZM3.66824 1.36038C2.28177 1.36038 1.35066 2.19714 1.35066 3.43945C1.35066 4.66119 2.27157 5.51848 3.59664 5.51848H3.63243C5.01379 5.51848 5.94491 4.68172 5.94491 3.43943C5.91932 2.18173 5.02402 1.36038 3.66824 1.36038Z" fill="black"/>
</svg>
