<svg width="114" height="34" viewBox="0 0 114 34" fill="none" xmlns="http://www.w3.org/2000/svg"><path fill-rule="evenodd" clip-rule="evenodd" d="M4.51873 8.73596H5.36473V1.84546H8.81217V1H1.07129V1.84546H4.51873V8.73596ZM27.1914 4.86798C27.1914 7.00277 28.9257 8.73596 31.0618 8.73596C33.198 8.73596 34.9323 7.00277 34.9323 4.86798V1H34.0863V4.86798C34.0863 6.53776 32.7327 7.8905 31.0618 7.8905C29.391 7.8905 28.0374 6.53776 28.0374 4.86798V1H27.1914V4.86798ZM60.2071 8.73596H61.3491L59.3399 6.58004C59.784 6.38981 60.1859 6.07276 60.482 5.67117C60.8627 5.16389 61.053 4.55093 61.053 3.91684C61.053 2.31046 59.7417 1 58.1343 1H53.291V8.75709H54.137V6.83367H58.1343C58.1902 6.83367 58.2401 6.82778 58.2872 6.82222C58.3294 6.81725 58.3694 6.81254 58.4093 6.81254L60.2071 8.73596ZM58.1555 5.98821H54.137V1.84546H58.1343C59.2764 1.84546 60.2071 2.77547 60.2071 3.91684C60.2071 4.88912 59.5302 5.73458 58.5785 5.94594C58.4516 5.96708 58.3036 5.98821 58.1555 5.98821ZM79.4316 8.73596H85.0364C86.2208 8.73596 87.1725 7.78482 87.1937 6.62231C87.1937 5.9248 86.8764 5.29071 86.3265 4.88912C86.8764 4.48752 87.1937 3.85343 87.1937 3.15592C87.1937 1.97228 86.2208 1 85.0364 1H79.4316V8.73596ZM85.0364 7.8905H80.2776V5.26957H85.0364C85.7555 5.26957 86.3477 5.86139 86.3477 6.58004C86.3477 7.29868 85.7555 7.8905 85.0364 7.8905ZM85.0364 4.44525H80.2776V1.84546H85.0364C85.7555 1.84546 86.3477 2.41615 86.3477 3.13479C86.3477 3.85343 85.7555 4.44525 85.0364 4.44525ZM105.298 4.86798C105.298 7.00277 107.032 8.73596 109.168 8.73596C111.305 8.73596 113.039 7.00277 113.039 4.86798C113.039 2.75433 111.326 1 109.19 1H109.147C107.011 1 105.277 2.75433 105.298 4.86798ZM106.144 4.86798C106.144 3.1982 107.498 1.84546 109.168 1.84546C110.839 1.84546 112.193 3.1982 112.193 4.86798C112.193 6.53776 110.839 7.8905 109.168 7.8905C107.498 7.8905 106.144 6.53776 106.144 4.86798Z" fill="#FDF77A"/><path fill-rule="evenodd" clip-rule="evenodd" d="M4.46893 8.73596H5.31492V1.84546H8.76236V1H1.02148V1.84546H4.46893V8.73596ZM27.1416 4.86798C27.1416 7.00277 28.8759 8.73596 31.0121 8.73596C33.1482 8.73596 34.8825 7.00277 34.8825 4.86798V1H34.0365V4.86798C34.0365 6.53776 32.6829 7.8905 31.0121 7.8905C29.3412 7.8905 27.9876 6.53776 27.9876 4.86798V1H27.1416V4.86798ZM60.1572 8.73596H61.2993L59.2901 6.58004C59.7342 6.38981 60.1361 6.07276 60.4322 5.67117C60.8129 5.16389 61.0032 4.55093 61.0032 3.91684C61.0032 2.31046 59.6919 1 58.0845 1H53.2412V8.75709H54.0872V6.83367H58.0845C58.1404 6.83367 58.1903 6.82778 58.2374 6.82222C58.2796 6.81725 58.3196 6.81254 58.3595 6.81254L60.1572 8.73596ZM58.1057 5.98821H54.0872V1.84546H58.0845C59.2266 1.84546 60.1572 2.77547 60.1572 3.91684C60.1572 4.88912 59.4804 5.73458 58.5287 5.94594C58.4018 5.96708 58.2537 5.98821 58.1057 5.98821ZM79.382 8.73596H84.9867C86.1711 8.73596 87.1229 7.78482 87.144 6.62231C87.144 5.9248 86.8268 5.29071 86.2769 4.88912C86.8268 4.48752 87.144 3.85343 87.144 3.15592C87.144 1.97228 86.1711 1 84.9867 1H79.382V8.73596ZM84.9867 7.8905H80.228V5.26957H84.9867C85.7058 5.26957 86.298 5.86139 86.298 6.58004C86.298 7.29868 85.7058 7.8905 84.9867 7.8905ZM84.9867 4.44525H80.228V1.84546H84.9867C85.7058 1.84546 86.298 2.41615 86.298 3.13479C86.298 3.85343 85.7058 4.44525 84.9867 4.44525ZM105.248 4.86798C105.248 7.00277 106.983 8.73596 109.119 8.73596C111.255 8.73596 112.989 7.00277 112.989 4.86798C112.989 2.75433 111.276 1 109.14 1H109.098C106.962 1 105.227 2.75433 105.248 4.86798ZM106.094 4.86798C106.094 3.1982 107.448 1.84546 109.119 1.84546C110.79 1.84546 112.143 3.1982 112.143 4.86798C112.143 6.53776 110.79 7.8905 109.119 7.8905C107.448 7.8905 106.094 6.53776 106.094 4.86798Z" fill="#FDF77A"/><path d="M5.31492 8.73596V8.98596H5.56492V8.73596H5.31492ZM4.46893 8.73596H4.21893V8.98596H4.46893V8.73596ZM5.31492 1.84546V1.59546H5.06492V1.84546H5.31492ZM8.76236 1.84546V2.09546H9.01236V1.84546H8.76236ZM8.76236 1H9.01236V0.75H8.76236V1ZM1.02148 1V0.75H0.771484V1H1.02148ZM1.02148 1.84546H0.771484V2.09546H1.02148V1.84546ZM4.46893 1.84546H4.71893V1.59546H4.46893V1.84546ZM34.8825 1H35.1325V0.75H34.8825V1ZM34.0365 1V0.75H33.7865V1H34.0365ZM27.9876 1H28.2376V0.75H27.9876V1ZM27.1416 1V0.75H26.8916V1H27.1416ZM61.2993 8.73596V8.98596H61.8741L61.4822 8.56551L61.2993 8.73596ZM60.1572 8.73596L59.9746 8.90667L60.0487 8.98596H60.1572V8.73596ZM59.2901 6.58004L59.1917 6.35023L58.8647 6.49027L59.1072 6.75048L59.2901 6.58004ZM60.4322 5.67117L60.2322 5.5211L60.231 5.52281L60.4322 5.67117ZM53.2412 1V0.75H52.9912V1H53.2412ZM53.2412 8.75709H52.9912V9.00709H53.2412V8.75709ZM54.0872 8.75709V9.00709H54.3372V8.75709H54.0872ZM54.0872 6.83367V6.58367H53.8372V6.83367H54.0872ZM58.2374 6.82222L58.2082 6.57394L58.2082 6.57394L58.2374 6.82222ZM58.3595 6.81254L58.5421 6.64183L58.468 6.56254H58.3595V6.81254ZM54.0872 5.98821H53.8372V6.23821H54.0872V5.98821ZM54.0872 1.84546V1.59546H53.8372V1.84546H54.0872ZM58.5287 5.94594L58.5698 6.1929L58.5829 6.18999L58.5287 5.94594ZM79.382 8.73596H79.132V8.98596H79.382V8.73596ZM87.144 6.62231L87.394 6.62686V6.62231H87.144ZM86.2769 4.88912L86.1294 4.68722L85.853 4.88912L86.1294 5.09101L86.2769 4.88912ZM79.382 1V0.75H79.132V1H79.382ZM80.228 7.8905H79.978V8.1405H80.228V7.8905ZM80.228 5.26957V5.01957H79.978V5.26957H80.228ZM80.228 4.44525H79.978V4.69525H80.228V4.44525ZM80.228 1.84546V1.59546H79.978V1.84546H80.228ZM105.248 4.86798H105.498L105.498 4.86548L105.248 4.86798ZM5.31492 8.48596H4.46893V8.98596H5.31492V8.48596ZM5.06492 1.84546V8.73596H5.56492V1.84546H5.06492ZM8.76236 1.59546H5.31492V2.09546H8.76236V1.59546ZM8.51236 1V1.84546H9.01236V1H8.51236ZM1.02148 1.25H8.76236V0.75H1.02148V1.25ZM1.27148 1.84546V1H0.771484V1.84546H1.27148ZM4.46893 1.59546H1.02148V2.09546H4.46893V1.59546ZM4.71893 8.73596V1.84546H4.21893V8.73596H4.71893ZM31.0121 8.48596C29.0139 8.48596 27.3916 6.86455 27.3916 4.86798H26.8916C26.8916 7.14099 28.738 8.98596 31.0121 8.98596V8.48596ZM34.6325 4.86798C34.6325 6.86455 33.0103 8.48596 31.0121 8.48596V8.98596C33.2861 8.98596 35.1325 7.14099 35.1325 4.86798H34.6325ZM34.6325 1V4.86798H35.1325V1H34.6325ZM34.0365 1.25H34.8825V0.75H34.0365V1.25ZM34.2865 4.86798V1H33.7865V4.86798H34.2865ZM31.0121 8.1405C32.8208 8.1405 34.2865 6.67598 34.2865 4.86798H33.7865C33.7865 6.39954 32.545 7.6405 31.0121 7.6405V8.1405ZM27.7376 4.86798C27.7376 6.67598 29.2033 8.1405 31.0121 8.1405V7.6405C29.4792 7.6405 28.2376 6.39954 28.2376 4.86798H27.7376ZM27.7376 1V4.86798H28.2376V1H27.7376ZM27.1416 1.25H27.9876V0.75H27.1416V1.25ZM27.3916 4.86798V1H26.8916V4.86798H27.3916ZM61.2993 8.48596H60.1572V8.98596H61.2993V8.48596ZM59.1072 6.75048L61.1165 8.9064L61.4822 8.56551L59.473 6.40959L59.1072 6.75048ZM60.231 5.52281C59.9611 5.88887 59.5946 6.17765 59.1917 6.35023L59.3885 6.80984C59.8739 6.60196 60.3111 6.25665 60.6334 5.81953L60.231 5.52281ZM60.7532 3.91684C60.7532 4.50064 60.5782 5.06008 60.2322 5.52111L60.6321 5.82123C61.0476 5.2677 61.2532 4.60122 61.2532 3.91684H60.7532ZM58.0845 1.25C59.554 1.25 60.7532 2.44868 60.7532 3.91684H61.2532C61.2532 2.17224 59.8299 0.75 58.0845 0.75V1.25ZM53.2412 1.25H58.0845V0.75H53.2412V1.25ZM53.4912 8.75709V1H52.9912V8.75709H53.4912ZM54.0872 8.50709H53.2412V9.00709H54.0872V8.50709ZM53.8372 6.83367V8.75709H54.3372V6.83367H53.8372ZM58.0845 6.58367H54.0872V7.08367H58.0845V6.58367ZM58.2082 6.57394C58.1599 6.57963 58.1237 6.58367 58.0845 6.58367V7.08367C58.157 7.08367 58.2207 7.07593 58.2667 7.0705L58.2082 6.57394ZM58.3595 6.56254C58.3023 6.56254 58.2476 6.56929 58.2082 6.57394L58.2667 7.0705C58.3116 7.06521 58.3368 7.06254 58.3595 7.06254V6.56254ZM60.3399 8.56525L58.5421 6.64183L58.1769 6.98325L59.9746 8.90667L60.3399 8.56525ZM54.0872 6.23821H58.1057V5.73821H54.0872V6.23821ZM53.8372 1.84546V5.98821H54.3372V1.84546H53.8372ZM58.0845 1.59546H54.0872V2.09546H58.0845V1.59546ZM60.4072 3.91684C60.4072 2.63724 59.3646 1.59546 58.0845 1.59546V2.09546C59.0887 2.09546 59.9072 2.91369 59.9072 3.91684H60.4072ZM58.5829 6.18999C59.6491 5.95321 60.4072 5.00623 60.4072 3.91684H59.9072C59.9072 4.77201 59.3118 5.51594 58.4745 5.70189L58.5829 6.18999ZM58.1057 6.23821C58.2753 6.23821 58.4401 6.21414 58.5698 6.19254L58.4876 5.69934C58.3635 5.72002 58.2322 5.73821 58.1057 5.73821V6.23821ZM84.9867 8.48596H79.382V8.98596H84.9867V8.48596ZM86.8941 6.61776C86.8754 7.64489 86.0339 8.48596 84.9867 8.48596V8.98596C86.3083 8.98596 87.3704 7.92474 87.394 6.62686L86.8941 6.61776ZM86.1294 5.09101C86.613 5.44419 86.894 6.00232 86.894 6.62231H87.394C87.394 5.84729 87.0405 5.13722 86.4243 4.68722L86.1294 5.09101ZM86.894 3.15592C86.894 3.77591 86.613 4.33404 86.1294 4.68722L86.4243 5.09101C87.0405 4.64101 87.394 3.93094 87.394 3.15592H86.894ZM84.9867 1.25C86.0332 1.25 86.894 2.1105 86.894 3.15592H87.394C87.394 1.83406 86.309 0.75 84.9867 0.75V1.25ZM79.382 1.25H84.9867V0.75H79.382V1.25ZM79.632 8.73596V1H79.132V8.73596H79.632ZM80.228 8.1405H84.9867V7.6405H80.228V8.1405ZM79.978 5.26957V7.8905H80.478V5.26957H79.978ZM84.9867 5.01957H80.228V5.51957H84.9867V5.01957ZM86.548 6.58004C86.548 5.72317 85.8437 5.01957 84.9867 5.01957V5.51957C85.5679 5.51957 86.048 5.99962 86.048 6.58004H86.548ZM84.9867 8.1405C85.8437 8.1405 86.548 7.4369 86.548 6.58004H86.048C86.048 7.16046 85.5679 7.6405 84.9867 7.6405V8.1405ZM80.228 4.69525H84.9867V4.19525H80.228V4.69525ZM79.978 1.84546V4.44525H80.478V1.84546H79.978ZM84.9867 1.59546H80.228V2.09546H84.9867V1.59546ZM86.548 3.13479C86.548 2.27266 85.8384 1.59546 84.9867 1.59546V2.09546C85.5732 2.09546 86.048 2.55963 86.048 3.13479H86.548ZM84.9867 4.69525C85.8437 4.69525 86.548 3.99165 86.548 3.13479H86.048C86.048 3.71521 85.5679 4.19525 84.9867 4.19525V4.69525ZM109.119 8.48596C107.121 8.48596 105.498 6.86454 105.498 4.86798H104.998C104.998 7.14099 106.845 8.98596 109.119 8.98596V8.48596ZM112.739 4.86798C112.739 6.86454 111.117 8.48596 109.119 8.48596V8.98596C111.393 8.98596 113.239 7.14099 113.239 4.86798H112.739ZM109.14 1.25C111.136 1.25 112.739 2.88987 112.739 4.86798H113.239C113.239 2.61879 111.417 0.75 109.14 0.75V1.25ZM109.098 1.25H109.14V0.75H109.098V1.25ZM105.498 4.86548C105.479 2.8916 107.1 1.25 109.098 1.25V0.75C106.823 0.75 104.976 2.61706 104.998 4.87048L105.498 4.86548ZM109.119 1.59546C107.31 1.59546 105.844 3.05997 105.844 4.86798H106.344C106.344 3.33642 107.586 2.09546 109.119 2.09546V1.59546ZM112.393 4.86798C112.393 3.05997 110.928 1.59546 109.119 1.59546V2.09546C110.652 2.09546 111.893 3.33642 111.893 4.86798H112.393ZM109.119 8.1405C110.928 8.1405 112.393 6.67598 112.393 4.86798H111.893C111.893 6.39954 110.652 7.6405 109.119 7.6405V8.1405ZM105.844 4.86798C105.844 6.67598 107.31 8.1405 109.119 8.1405V7.6405C107.586 7.6405 106.344 6.39954 106.344 4.86798H105.844Z" fill="#FE7221" fill-opacity="0.7"/><path d="M21.583 15.8271V33.3305C21.583 33.6855 21.8708 33.9733 22.2258 33.9733V33.9733C22.5808 33.9733 22.8685 33.6855 22.8685 33.3305V17.1421H25.5856V31.5772C25.5856 32.8629 26.6082 33.8856 27.8937 33.8856H38.47C39.142 33.8856 39.6679 33.3596 39.6679 32.6875V28.8012H26.9004V15.8271H21.583ZM38.3823 30.1161V32.5707H27.9229C27.3678 32.5707 26.9296 32.1323 26.9296 31.5772V30.1161H38.3823Z" fill="url('#paint0_linear_467_3422')"/><path d="M41.9758 15.8271C41.6208 15.8271 41.333 16.1149 41.333 16.4699V33.9733H45.5401C46.5043 33.9733 47.2931 33.1843 47.2931 32.22V16.4699C47.2931 16.1149 47.0053 15.8271 46.6504 15.8271V15.8271C46.2954 15.8271 46.0076 16.1149 46.0076 16.4699V32.22C46.0076 32.483 45.8031 32.6875 45.5401 32.6875H42.6185V16.4699C42.6185 16.1149 42.3308 15.8271 41.9758 15.8271V15.8271Z" fill="url('#paint1_linear_467_3422')"/><path d="M67.6859 15.9733H64.3845V26.6973L56.8467 18.6031C56.2916 18.0187 55.4443 17.8142 54.7139 18.1064C53.9543 18.3986 53.4868 19.1291 53.4868 19.9181V32.6875H51.0619V16.4699C51.0619 16.1149 50.7741 15.8271 50.4191 15.8271V15.8271C50.0641 15.8271 49.7764 16.1149 49.7764 16.4699V33.9733H53.6037C53.9251 33.9733 54.2172 33.8564 54.451 33.6226C54.6847 33.3888 54.8016 33.0966 54.8016 32.7752V23.2784L64.7643 33.944L69.4389 33.9733V17.7265C69.4389 16.733 68.6793 15.9733 67.6859 15.9733ZM68.1534 32.6875H65.3486L54.8016 21.3791V19.9181C54.8016 19.509 55.1229 19.3336 55.2106 19.3044C55.2982 19.2752 55.6488 19.1583 55.941 19.4797L65.7284 29.97V17.259H67.7151C67.9781 17.259 68.1826 17.4635 68.1826 17.7265V32.6875H68.1534Z" fill="url('#paint2_linear_467_3422')"/><path d="M77.3269 27.6033L78.6416 26.6098L85.3029 33.915H89.7146C90.1528 33.915 90.5618 33.652 90.7663 33.2429C90.9416 32.8338 90.854 32.337 90.5618 32.0156L82.7319 23.5416L90.3281 17.7851C90.6787 17.5221 90.8248 17.0546 90.6787 16.6455C90.5326 16.2364 90.1528 15.9442 89.7146 15.9442H84.5141L77.3561 21.4377V15.8857H71.9219V22.6357C71.9219 23.5124 72.4185 24.3013 73.2074 24.6812C73.9962 25.0611 74.9019 24.9734 75.6031 24.4474L84.9815 17.2591H88.9257L74.4929 28.1877C72.9152 29.3857 71.9511 31.2851 71.9511 33.2721V33.915H77.3853V27.6033H77.3269ZM76.0414 22.4604L74.7851 23.4247C74.4929 23.6585 74.0839 23.6877 73.7625 23.5124C73.4119 23.337 73.2074 23.0156 73.2074 22.6357V17.2007H76.0414V22.4604ZM89.3347 32.6293H85.858L79.6642 25.85L81.6509 24.3598L89.3347 32.6293ZM76.0414 32.6293H73.2366C73.4119 31.2851 74.1131 30.0578 75.1941 29.2396L76.0121 28.5968V32.6293H76.0414Z" fill="url('#paint3_linear_467_3422')"/><path d="M13.8404 26.113L3.26414 26.1422C1.97862 26.1422 0.956055 27.165 0.956055 28.4507V33.9442H4.78338C5.45535 33.9442 5.98125 33.4182 5.98125 32.7461V27.428H13.9865V27.3987C17.0834 27.3111 19.5668 24.7689 19.5668 21.6422C19.5668 18.4572 16.9958 15.8857 13.8112 15.8857H0.956055V19.7137C0.956055 20.7656 1.36508 21.7591 2.1247 22.5189C2.88433 23.2786 3.87768 23.6877 4.92946 23.6877H13.8404C14.9506 23.6877 15.8563 22.7818 15.8563 21.6715C15.8563 20.5611 14.9506 19.6552 13.8404 19.6552H4.69573V22.402C4.08219 22.3435 3.49787 22.0806 3.03041 21.6422C2.53373 21.1455 2.24157 20.4734 2.24157 19.7429V17.2007H13.8404C16.2946 17.2007 18.3105 19.1877 18.3105 21.6715C18.3105 24.0968 16.2946 26.113 13.8404 26.113ZM4.69573 32.6293H2.24157V28.4215C2.24157 27.8663 2.70903 27.428 3.26414 27.428H4.69573V32.6293ZM5.98125 20.9409H13.8112C14.2202 20.9409 14.5416 21.2624 14.5416 21.6715C14.5416 22.0805 14.2202 22.402 13.8112 22.402H5.98125V20.9409Z" fill="url('#paint4_linear_467_3422')"/><path d="M99.8528 33.9149H101.197V28.6259H99.8528C97.6908 28.6259 95.9378 26.9311 95.8501 24.798C95.967 22.6649 97.72 20.9701 99.8528 20.9701H103.739C105.901 20.9701 107.654 22.6649 107.741 24.798C107.624 26.9311 105.871 28.6259 103.739 28.6259H103.709C103.354 28.6259 103.067 28.9137 103.067 29.2688V29.2688C103.067 29.6238 103.354 29.9116 103.709 29.9116H103.739C106.543 29.9116 108.822 27.7493 109.056 25.0026H109.085V24.5935H109.056C108.851 21.8467 106.543 19.6844 103.739 19.6844H99.8528C97.048 19.6844 94.7691 21.8467 94.5354 24.5935H94.5062V25.0026H94.5354C94.7399 27.7493 97.048 29.9116 99.8528 29.9116H99.9112V32.6H99.8528C95.5872 32.6 92.0813 29.1519 92.0228 24.8857C92.0813 20.6194 95.558 17.1714 99.8528 17.1714H103.739C108.004 17.1714 111.51 20.6194 111.568 24.8857C111.51 29.1519 108.033 32.6 103.739 32.6H103.709C103.354 32.6 103.067 32.8878 103.067 33.2428V33.2428C103.067 33.5979 103.354 33.8857 103.709 33.8857H103.739C108.705 33.8857 112.737 29.9116 112.854 24.9733V24.7688C112.737 19.8305 108.705 15.8564 103.739 15.8564H99.8528C94.886 15.8564 90.8542 19.8305 90.7373 24.7688V24.9733C90.8542 29.9409 94.9152 33.9149 99.8528 33.9149Z" fill="url('#paint5_linear_467_3422')"/><defs><linearGradient id="paint0_linear_467_3422" x1="21.5827" y1="24.9084" x2="39.6722" y2="24.9084" gradientUnits="userSpaceOnUse"><stop stop-color="#66FFFB"/><stop offset="1" stop-color="#21E4FF"/></linearGradient><linearGradient id="paint1_linear_467_3422" x1="41.3242" y1="24.9084" x2="47.2845" y2="24.9084" gradientUnits="userSpaceOnUse"><stop stop-color="#66FFFB"/><stop offset="1" stop-color="#21E4FF"/></linearGradient><linearGradient id="paint2_linear_467_3422" x1="49.7723" y1="24.9084" x2="69.4528" y2="24.9084" gradientUnits="userSpaceOnUse"><stop stop-color="#66FFFB"/><stop offset="1" stop-color="#21E4FF"/></linearGradient><linearGradient id="paint3_linear_467_3422" x1="71.8883" y1="24.9085" x2="90.8378" y2="24.9085" gradientUnits="userSpaceOnUse"><stop stop-color="#66FFFB"/><stop offset="1" stop-color="#21E4FF"/></linearGradient><linearGradient id="paint4_linear_467_3422" x1="0.953104" y1="24.9085" x2="19.6021" y2="24.9085" gradientUnits="userSpaceOnUse"><stop stop-color="#66FFFB"/><stop offset="1" stop-color="#21E4FF"/></linearGradient><linearGradient id="paint5_linear_467_3422" x1="90.737" y1="24.9084" x2="112.873" y2="24.9084" gradientUnits="userSpaceOnUse"><stop stop-color="#66FFFB"/><stop offset="1" stop-color="#21E4FF"/></linearGradient></defs></svg>