<svg xmlns="http://www.w3.org/2000/svg" width="28" height="28" fill="none"><path fill="#E6E6E6" d="M7.818 26h11.364C20.87 26 22 24.87 22 23.188V4.823C22 3.14 20.87 2 19.182 2H7.818C6.13 2 5 3.14 5 4.823v18.365C5 24.87 6.13 26 7.818 26Zm-1.18-3.611V5.622h13.724v16.767H6.638Zm6.877 2.556c-.498 0-.885-.415-.885-.926 0-.501.387-.916.885-.916.478 0 .875.415.875.916 0 .511-.397.927-.875.927Zm-.02-20.41c-.305 0-.55-.266-.55-.586 0-.309.245-.585.55-.585.305 0 .56.276.56.585 0 .32-.255.586-.56.586Z"/></svg>