<svg width="512" height="512" viewBox="0 0 32 32" fill="none" xmlns="http://www.w3.org/2000/svg"><g filter="url('#filter0_d_287_2966')"><path fill-rule="evenodd" clip-rule="evenodd" d="M16.0792 26.7392C9.90047 27.0305 4.65554 22.2577 4.36432 16.079C4.0731 9.90022 8.84587 4.65529 15.0246 4.36407C21.2033 4.07286 26.4483 8.84563 26.7395 15.0244C27.0307 21.2031 22.2579 26.448 16.0792 26.7392ZM16.1169 27.5383C9.49679 27.8504 3.87723 22.7367 3.56521 16.1166C3.25319 9.49655 8.36687 3.87698 14.9869 3.56496C21.607 3.25294 27.2266 8.36663 27.5386 14.9867C27.8506 21.6068 22.7369 27.2263 16.1169 27.5383Z" fill="#FDF77A" shape-rendering="crispEdges"/><path fill-rule="evenodd" clip-rule="evenodd" d="M16.0792 26.7392C9.90047 27.0305 4.65554 22.2577 4.36432 16.079C4.0731 9.90022 8.84587 4.65529 15.0246 4.36407C21.2033 4.07286 26.4483 8.84563 26.7395 15.0244C27.0307 21.2031 22.2579 26.448 16.0792 26.7392ZM16.1169 27.5383C9.49679 27.8504 3.87723 22.7367 3.56521 16.1166C3.25319 9.49655 8.36687 3.87698 14.9869 3.56496C21.607 3.25294 27.2266 8.36663 27.5386 14.9867C27.8506 21.6068 22.7369 27.2263 16.1169 27.5383Z" stroke="#FE7221" stroke-opacity="0.4" shape-rendering="crispEdges"/></g><path d="M13.9676 24.3764C13.9082 24.6655 13.6255 24.8537 13.3395 24.7805C9.15559 23.7105 6.15571 20.0913 5.95446 15.8214C5.81513 12.8653 7.07054 10.0164 9.29512 8.07336C9.52807 7.86775 9.90427 7.89327 10.0925 8.14391C10.2788 8.35138 10.25 8.67713 10.0381 8.86012C8.04645 10.5975 6.93188 13.1586 7.05494 15.7696C7.23273 19.5418 9.87984 22.7437 13.5532 23.7276C13.8393 23.8043 14.0272 24.0863 13.9676 24.3764Z" fill="#FDF77A" stroke="#FE7221" stroke-opacity="0.4"/><path d="M20.8904 22.4473C20.7047 22.2245 20.7452 21.9089 20.9762 21.7316C21.8098 21.0593 22.5213 20.2104 23.0385 19.2866C23.5557 18.3628 23.9031 17.3231 24.0305 16.2706C24.0684 15.9973 24.3227 15.8001 24.6086 15.8167C24.9166 15.8346 25.1658 16.1034 25.1254 16.419C24.9686 17.597 24.5919 18.7621 24.0026 19.7878C23.412 20.8345 22.6076 21.7628 21.6799 22.5356C21.4476 22.7341 21.0969 22.6925 20.8904 22.4473Z" fill="#FDF77A" stroke="#FE7221" stroke-opacity="0.4"/><g filter="url('#filter1_d_287_2966')"><circle cx="15.5532" cy="15.5511" r="6.85714" transform="rotate(-2.69849 15.5532 15.5511)" fill="#FDF77A" shape-rendering="crispEdges"/><circle cx="15.5532" cy="15.5511" r="6.85714" transform="rotate(-2.69849 15.5532 15.5511)" stroke="#FE7221" stroke-opacity="0.4" shape-rendering="crispEdges"/></g><defs><filter id="filter0_d_287_2966" x="0.0517578" y="0.0512695" width="31" height="31.0005" filterUnits="userSpaceOnUse" color-interpolation-filters="sRGB"><feFlood flood-opacity="0" result="BackgroundImageFix"/><feColorMatrix in="SourceAlpha" type="matrix" values="0 0 0 0 0 0 0 0 0 0 0 0 0 0 0 0 0 0 127 0" result="hardAlpha"/><feOffset/><feGaussianBlur stdDeviation="1.5"/><feComposite in2="hardAlpha" operator="out"/><feColorMatrix type="matrix" values="0 0 0 0 0.995833 0 0 0 0 0.570191 0 0 0 0 0.369288 0 0 0 1 0"/><feBlend mode="normal" in2="BackgroundImageFix" result="effect1_dropShadow_287_2966"/><feBlend mode="normal" in="SourceGraphic" in2="effect1_dropShadow_287_2966" result="shape"/></filter><filter id="filter1_d_287_2966" x="5.19629" y="5.19385" width="20.7139" height="20.7144" filterUnits="userSpaceOnUse" color-interpolation-filters="sRGB"><feFlood flood-opacity="0" result="BackgroundImageFix"/><feColorMatrix in="SourceAlpha" type="matrix" values="0 0 0 0 0 0 0 0 0 0 0 0 0 0 0 0 0 0 127 0" result="hardAlpha"/><feOffset/><feGaussianBlur stdDeviation="1.5"/><feComposite in2="hardAlpha" operator="out"/><feColorMatrix type="matrix" values="0 0 0 0 1 0 0 0 0 0.571711 0 0 0 0 0.225 0 0 0 0.65 0"/><feBlend mode="normal" in2="BackgroundImageFix" result="effect1_dropShadow_287_2966"/><feBlend mode="normal" in="SourceGraphic" in2="effect1_dropShadow_287_2966" result="shape"/></filter></defs></svg>