<svg width="512" height="512" viewBox="0 0 32 32" fill="none" xmlns="http://www.w3.org/2000/svg"><g filter="url('#filter0_d_287_2974')"><path fill-rule="evenodd" clip-rule="evenodd" d="M16.0792 26.7392C9.90047 27.0305 4.65554 22.2577 4.36432 16.079C4.0731 9.90022 8.84587 4.65529 15.0246 4.36407C21.2033 4.07286 26.4483 8.84563 26.7395 15.0244C27.0307 21.2031 22.2579 26.448 16.0792 26.7392ZM16.1169 27.5383C9.49679 27.8504 3.87723 22.7367 3.56521 16.1166C3.25319 9.49655 8.36687 3.87698 14.9869 3.56496C21.607 3.25294 27.2266 8.36663 27.5386 14.9867C27.8506 21.6068 22.7369 27.2263 16.1169 27.5383Z" fill="#95FFF1" shape-rendering="crispEdges"/><path fill-rule="evenodd" clip-rule="evenodd" d="M16.0792 26.7392C9.90047 27.0305 4.65554 22.2577 4.36432 16.079C4.0731 9.90022 8.84587 4.65529 15.0246 4.36407C21.2033 4.07286 26.4483 8.84563 26.7395 15.0244C27.0307 21.2031 22.2579 26.448 16.0792 26.7392ZM16.1169 27.5383C9.49679 27.8504 3.87723 22.7367 3.56521 16.1166C3.25319 9.49655 8.36687 3.87698 14.9869 3.56496C21.607 3.25294 27.2266 8.36663 27.5386 14.9867C27.8506 21.6068 22.7369 27.2263 16.1169 27.5383Z" stroke="#07E3CA" stroke-opacity="0.4" shape-rendering="crispEdges"/></g><g filter="url('#filter1_d_287_2974')"><path d="M13.9666 24.3759C13.9072 24.6651 13.6245 24.8532 13.3386 24.7801C9.15462 23.71 6.15473 20.0908 5.95348 15.8209C5.81415 12.8648 7.06957 10.0159 9.29414 8.07287C9.52709 7.86726 9.90329 7.89278 10.0916 8.14342C10.2778 8.3509 10.2491 8.67664 10.0371 8.85963C8.04548 10.5971 6.93091 13.1582 7.05396 15.7691C7.23176 19.5413 9.87886 22.7432 13.5522 23.7272C13.8384 23.8038 14.0262 24.0858 13.9666 24.3759Z" fill="#95FFF1" stroke="#07E3CA" stroke-opacity="0.57"/></g><g filter="url('#filter2_d_287_2974')"><path d="M20.8895 22.4473C20.7038 22.2245 20.7442 21.9089 20.9752 21.7316C21.8088 21.0593 22.5203 20.2104 23.0375 19.2866C23.5547 18.3628 23.9021 17.3231 24.0295 16.2706C24.0674 15.9973 24.3217 15.8001 24.6076 15.8167C24.9156 15.8346 25.1648 16.1034 25.1244 16.419C24.9677 17.597 24.5909 18.7621 24.0016 19.7878C23.4111 20.8345 22.6067 21.7628 21.6789 22.5356C21.4466 22.7341 21.0959 22.6925 20.8895 22.4473Z" fill="#95FFF1" stroke="#07E3CA" stroke-opacity="0.57"/></g><g filter="url('#filter3_d_287_2974')"><circle cx="15.5523" cy="15.5516" r="6.85714" transform="rotate(-2.69849 15.5523 15.5516)" fill="#95FFF1" shape-rendering="crispEdges"/><circle cx="15.5523" cy="15.5516" r="6.85714" transform="rotate(-2.69849 15.5523 15.5516)" stroke="#07E3CA" stroke-opacity="0.57" shape-rendering="crispEdges"/></g><defs><filter id="filter0_d_287_2974" x="0.0517578" y="0.0512695" width="31" height="31.0005" filterUnits="userSpaceOnUse" color-interpolation-filters="sRGB"><feFlood flood-opacity="0" result="BackgroundImageFix"/><feColorMatrix in="SourceAlpha" type="matrix" values="0 0 0 0 0 0 0 0 0 0 0 0 0 0 0 0 0 0 127 0" result="hardAlpha"/><feOffset/><feGaussianBlur stdDeviation="1.5"/><feComposite in2="hardAlpha" operator="out"/><feColorMatrix type="matrix" values="0 0 0 0 0.266667 0 0 0 0 0.937255 0 0 0 0 0.858824 0 0 0 0.52 0"/><feBlend mode="normal" in2="BackgroundImageFix" result="effect1_dropShadow_287_2974"/><feBlend mode="normal" in="SourceGraphic" in2="effect1_dropShadow_287_2974" result="shape"/></filter><filter id="filter1_d_287_2974" x="2.44336" y="4.43555" width="15.0342" height="23.8608" filterUnits="userSpaceOnUse" color-interpolation-filters="sRGB"><feFlood flood-opacity="0" result="BackgroundImageFix"/><feColorMatrix in="SourceAlpha" type="matrix" values="0 0 0 0 0 0 0 0 0 0 0 0 0 0 0 0 0 0 127 0" result="hardAlpha"/><feOffset/><feGaussianBlur stdDeviation="1.5"/><feComposite in2="hardAlpha" operator="out"/><feColorMatrix type="matrix" values="0 0 0 0 0.266667 0 0 0 0 0.937255 0 0 0 0 0.858824 0 0 0 1 0"/><feBlend mode="normal" in2="BackgroundImageFix" result="effect1_dropShadow_287_2974"/><feBlend mode="normal" in="SourceGraphic" in2="effect1_dropShadow_287_2974" result="shape"/></filter><filter id="filter2_d_287_2974" x="17.2725" y="12.3159" width="11.3564" height="13.8462" filterUnits="userSpaceOnUse" color-interpolation-filters="sRGB"><feFlood flood-opacity="0" result="BackgroundImageFix"/><feColorMatrix in="SourceAlpha" type="matrix" values="0 0 0 0 0 0 0 0 0 0 0 0 0 0 0 0 0 0 127 0" result="hardAlpha"/><feOffset/><feGaussianBlur stdDeviation="1.5"/><feComposite in2="hardAlpha" operator="out"/><feColorMatrix type="matrix" values="0 0 0 0 0.266667 0 0 0 0 0.937255 0 0 0 0 0.858824 0 0 0 1 0"/><feBlend mode="normal" in2="BackgroundImageFix" result="effect1_dropShadow_287_2974"/><feBlend mode="normal" in="SourceGraphic" in2="effect1_dropShadow_287_2974" result="shape"/></filter><filter id="filter3_d_287_2974" x="5.19531" y="5.19434" width="20.7139" height="20.7144" filterUnits="userSpaceOnUse" color-interpolation-filters="sRGB"><feFlood flood-opacity="0" result="BackgroundImageFix"/><feColorMatrix in="SourceAlpha" type="matrix" values="0 0 0 0 0 0 0 0 0 0 0 0 0 0 0 0 0 0 127 0" result="hardAlpha"/><feOffset/><feGaussianBlur stdDeviation="1.5"/><feComposite in2="hardAlpha" operator="out"/><feColorMatrix type="matrix" values="0 0 0 0 0.266667 0 0 0 0 0.937255 0 0 0 0 0.858824 0 0 0 1 0"/><feBlend mode="normal" in2="BackgroundImageFix" result="effect1_dropShadow_287_2974"/><feBlend mode="normal" in="SourceGraphic" in2="effect1_dropShadow_287_2974" result="shape"/></filter></defs></svg>