<svg xmlns="http://www.w3.org/2000/svg" width="28" height="28" fill="none"><path fill="#FF003A" d="M6.945 25h15.11C24.05 25 25 24.433 25 23.186c0-2.971-3.979-7.269-10.494-7.269C7.979 15.917 4 20.215 4 23.186 4 24.433 4.95 25 6.945 25Zm-.565-1.712c-.312 0-.445-.08-.445-.318 0-1.87 3.054-5.34 8.571-5.34 5.505 0 8.559 3.47 8.559 5.34 0 .239-.12.318-.433.318H6.38Zm8.126-8.788c2.86 0 5.193-2.393 5.193-5.318 0-2.903-2.32-5.182-5.193-5.182-2.849 0-5.193 2.325-5.193 5.205 0 2.914 2.332 5.295 5.193 5.295Zm0-1.712c-1.755 0-3.258-1.576-3.258-3.583 0-1.973 1.479-3.493 3.258-3.493 1.791 0 3.258 1.486 3.258 3.47 0 2.007-1.491 3.606-3.258 3.606Z"/></svg>