<svg width="64" height="20" viewBox="0 0 64 20" fill="none" xmlns="http://www.w3.org/2000/svg">
<path d="M55.6179 0H61.4532L54.0839 12.5548V20H48.9103V12.5834L41.541 0H47.3763L51.4971 7.51429L55.6179 0Z" fill="#FF003A"/>
<path d="M35.9203 9.95186L30.5614 20H25.0619L35.9203 0L46.8051 20H41.2792L35.9203 9.95186Z" fill="#FF003A"/>
<path d="M22.5085 0H17.7379V20H25.062L27.69 15.1595H22.5085V0Z" fill="black"/>
<path fill-rule="evenodd" clip-rule="evenodd" d="M0 0V20H4.80684V15.1163H6.88531C8.57866 15.1163 9.99612 14.8186 11.1377 14.2232C12.2983 13.6058 13.1735 12.7347 13.7633 11.6101C14.3532 10.4634 14.6481 9.11828 14.6481 7.57468C14.6481 5.98697 14.3532 4.63081 13.7633 3.50618C13.1735 2.38156 12.2983 1.52155 11.1377 0.926161C9.99612 0.30872 8.57866 0 6.88531 0H0ZM4.80684 4.59773V10.5185H6.88531C7.85566 10.5185 8.61671 10.265 9.16848 9.75777C9.72024 9.25059 9.99613 8.52289 9.99613 7.57468C9.99613 6.60441 9.72024 5.86569 9.16848 5.35851C8.61671 4.85132 7.85566 4.59773 6.88531 4.59773H4.80684Z" fill="black"/>
<rect width="3.69159" height="3.69159" transform="matrix(0.701442 0.712726 -0.701442 0.712726 61.4105 14.6514)" fill="#FF003A"/>
</svg>
