<svg id="exRNzDTQO571" xmlns="http://www.w3.org/2000/svg" xmlns:xlink="http://www.w3.org/1999/xlink" viewBox="0 0 650 160" shape-rendering="geometricPrecision" text-rendering="geometricPrecision"><defs><filter id="exRNzDTQO572-filter" x="-150%" width="400%" y="-150%" height="400%"><feGaussianBlur id="exRNzDTQO572-filter-drop-shadow-0-blur" in="SourceAlpha" stdDeviation="2,2"/><feOffset id="exRNzDTQO572-filter-drop-shadow-0-offset" dx="1" dy="1" result="tmp"/><feFlood id="exRNzDTQO572-filter-drop-shadow-0-flood" flood-color="rgba(51,255,199,0.5)"/><feComposite id="exRNzDTQO572-filter-drop-shadow-0-composite" operator="in" in2="tmp"/><feMerge id="exRNzDTQO572-filter-drop-shadow-0-merge"><feMergeNode id="exRNzDTQO572-filter-drop-shadow-0-merge-node-1"/><feMergeNode id="exRNzDTQO572-filter-drop-shadow-0-merge-node-2" in="SourceGraphic"/></feMerge></filter><filter id="exRNzDTQO579-filter" x="-150%" width="400%" y="-150%" height="400%"><feGaussianBlur id="exRNzDTQO579-filter-blur-0" stdDeviation="2,2" result="result"/></filter><filter id="exRNzDTQO5710-filter" x="-150%" width="400%" y="-150%" height="400%"><feGaussianBlur id="exRNzDTQO5710-filter-blur-0" stdDeviation="1,1" result="result"/></filter></defs><g id="exRNzDTQO572" transform="matrix(0 0 0 0 325 80)" filter="url('#exRNzDTQO572-filter')"><path d="M184.568,22.5391c-4.631,0-8.416,3.7386-8.416,8.3143v4.3524c0,2.0088,1.695,3.6828,3.728,3.6828h35.754v-6.9192c0-2.0088-1.695-3.6828-3.728-3.6828h-25.135v-3.0133h18.413c1.413,0,2.542-1.116,2.542-2.511v-5.5242c0-1.395-1.129-2.511-2.542-2.511h-18.413v-3.0132h25.135c2.033,0,3.728-1.674,3.728-3.68285v-6.91923h-35.754c-2.033,0-3.728,1.61821-3.728,3.68282v4.35242c0,4.57564,3.785,8.31424,8.416,8.31424h20.503v5.1336h-20.503v-.0558Zm27.394,8.4817c.509,0,.961.4464.961.9486v4.185h-33.043c-.508,0-.96-.4464-.96-.9486v-4.3524c0-2.9016,2.259-5.3011,5.196-5.5801v5.7475h27.846ZM184.116,8.97966v5.74744c-2.88-.2232-5.196-2.6226-5.196-5.58004v-4.35242c0-.50221.452-.94861.96-.94861h33.043v4.12922c0,.50221-.452.94861-.961.94861h-27.846v.0558Z" fill="#95fff1" stroke="#07e3ca" stroke-opacity="0.57"/><path d="M265,19.9723c0-10.37884-8.585-18.86048-19.091-18.86048h-21.294c-2.033,0-3.728,1.61821-3.728,3.68282v17.91186c0,4.5757,3.784,8.3143,8.416,8.3143h16.041c6.157,0,11.127-4.9105,11.127-10.9927s-4.97-10.99264-11.127-10.99264h-16.493v19.25114c-2.88-.2232-5.196-2.6227-5.196-5.5801v-17.91186c0-.50221.452-.94861.96-.94861h21.294c8.981,0,16.323,7.25407,16.323,16.12627s-7.342,16.1263-16.323,16.1263h-25.248v2.7342h25.248c10.506,0,19.091-8.4258,19.091-18.8605Zm-33.381-8.2584h13.725c4.632,0,8.416,3.7386,8.416,8.2584c0,4.5756-3.784,8.3143-8.416,8.3143h-13.725v-16.5727Z" fill="#95fff1" stroke="#07e3ca" stroke-opacity="0.57"/><path d="M106.171,38.8328h16.041c2.033,0,3.728-1.6182,3.728-3.6828v-7.5888h-19.43c-4.237,0-7.6821-3.4039-7.6821-7.5889s3.4451-7.5888,7.6821-7.5888h19.43v-2.73424h-19.43c-5.762,0-10.3932,4.63144-10.3932,10.26724c0,5.6916,4.6882,10.2673,10.3932,10.2673h16.718v4.9104c0,.5022-.451.9486-.96.9486h-16.041c-8.9806,0-16.3233-7.254-16.3233-16.1263s7.3427-16.12627,16.3233-16.12627h19.769v-2.67841h-19.769c-10.5056,0-19.091,8.48164-19.091,18.86048-.0565,10.4347,8.5289,18.8605,19.035,18.8605Z" fill="#95fff1" stroke="#07e3ca" stroke-opacity="0.57"/><path d="M69.2871,1v38h8.9243c2.0333,0,3.7278-1.674,3.7278-3.6828v-34.3172h-2.7676v34.3172c0,.5022-.4519.9486-.9602.9486h-6.1566v-35.2658h-2.7677Z" fill="#95fff1" stroke="#07e3ca" stroke-opacity="0.57"/><path d="M143.28,25.6639l2.768-2.0646l14.064,15.2893h9.376c.96,0,1.808-.558,2.203-1.395s.226-1.8414-.452-2.5668L154.633,17.1265L170.731,5.07364c.734-.55801,1.017-1.50661.734-2.39942-.282-.8928-1.13-1.4508-2.033-1.4508h-11.014L143.28,12.7183v-11.60648h-11.522v14.11748c0,1.8414,1.017,3.4596,2.711,4.2966c1.638.837,3.615.6138,5.083-.5022L159.378,3.95763h8.303L137.124,26.8358c-3.333,2.511-5.366,6.4728-5.366,10.6578v1.3392h11.522v-13.1689v0Zm-2.767-10.8252l-2.655,2.0088c-.621.5022-1.469.558-2.203.2232s-1.186-1.0602-1.186-1.8414v-11.38327h6.044v10.99267Zm28.184,21.3157h-7.342L148.251,21.9811l4.179-3.1248l16.267,17.2981Zm-28.184,0h-5.931c.395-2.79,1.864-5.4126,4.18-7.0866l1.751-1.3392v8.4258Z" fill="#95fff1" stroke="#07e3ca" stroke-opacity="0.57"/><path d="M61.9448,1.11182L49.0667,36.1544h-5.4223L56.466,1.11182h-2.9371L45.8472,22.0927L39.2952,4.23663c-.6777-1.84141-2.4287-3.06901-4.4056-3.06901h-7.1168L20.0347,22.1485L13.4827,4.18083c-.6778-1.84141-2.4288-3.06901-4.40568-3.06901h-8.07702L14.6123,38.8328h2.9371L4.8973,3.84603h4.12324c.84724,0,1.58156.5022,1.86396,1.28341L20.543,31.4114c.5648,1.5624,2.0334,2.5668,3.6714,2.5668c1.6945,0,3.1065-1.0044,3.6713-2.5668l5.027-13.6153l7.7381,21.0367h10.2799L64.8254,1.11182h-2.8806v0ZM32.9692,9.92826L25.344,30.5186c-.2824.7254-.9037.7812-1.1296.7812-.1695,0-.8473-.0558-1.1297-.7812l-1.5815-4.4083l8.19-22.26427h5.1399c.8473,0,1.5815.5022,1.8639,1.28341L44.3787,26.0545L41.6675,33.476L32.9692,9.92826Z" fill="#95fff1" stroke="#07e3ca" stroke-opacity="0.57"/></g><path id="exRNzDTQO579" d="M316.114392,90.7979q-171.237692,33.6474-204.279992,0c-33.0423-33.6474,27.7872-61.582772,51.6804-56.41398s90.04491-1.33932,118.478856,9.70923s114.178342,50.55495,119.260342,51.72675s46.687625,16.0707,77.093999,18.0795s88.63057,15.4008,103.623785,11.718s19.178188-19.7535,24.879701-27.2865-7.006487-37.83228-7.006487-43.1892-7.910531-20.75778-38.127-20.75778-103.283126,18.74898-111.964063,20.75778-17.954883,15.9027-73.21741,35.6562-164.034931,41.6829-180.825427,41.6829-108.447,4.017599-122.511-4.017601-48.2925-45.5331-42.7008-57.9207s19.8255-35.15418,26.4339-35.15418s82.571202-18.582765,103.701-18.582765s109.4598-7.108486,135.0498-2.843394s77.322545-1.842592,81.563375,14.060498-4.799375,26.951639-13.103375,36.158639q-8.304,9.207-48.029604,26.616603Z" transform="translate(.000004 0.000003)" opacity="0.4" filter="url('#exRNzDTQO579-filter')" fill="none" stroke="#46efe6" stroke-width="20" stroke-linecap="round" stroke-dashoffset="200" stroke-dasharray="0.01,300"/><path id="exRNzDTQO5710" d="M406.336,48.94778q69.620052-25.94712,79.977.837c10.356948,26.78412,20.673,39.67422,0,52.89882s-95.907001,34.966225-130.473001,34.966225-266.994864-7.345226-277.0479-17.221826-27.7899-41.348101-5.592-48.044101s475.6389,56.7489,499.7019,43.5243q24.063-13.2246,15.759-29.9649-129.502938-9.8766-134.205001-9.3744c-4.702063.5022-364.648501-14.39643-342.621601-29.79732s131.493917-13.22466,132.678599-12.38766q1.184682.837,161.823004,14.563862Z" transform="translate(.000006 0.000002)" opacity="0.4" filter="url('#exRNzDTQO5710-filter')" fill="none" stroke="#99fded" stroke-width="10" stroke-linecap="round" stroke-dashoffset="50" stroke-dasharray="0.01,300"/><script>!function(t,e,N,o,T,r,s,n,Y,h,v,i,O,a){(O=document.getElementById(e.root)).svgatorPlayer={ready:function(t){return a=[],function(e){return e?(a.push(e),t.svgatorPlayer):a}}(O)},r[o]=r[o]||{},r[o][t]=r[o][t]||[],r[o][t].push(e),(v=s.createElementNS(&quot;http://www.w3.org/2000/svg&quot;,n)).async=!0,v.setAttributeNS(&quot;http://www.w3.org/1999/xlink&quot;,&quot;href&quot;,[N,t,&quot;.&quot;,&quot;j&quot;,&quot;s&quot;,&quot;?&quot;,&quot;v&quot;,&quot;=&quot;,T].join(&quot;&quot;)),v.setAttributeNS(null,&quot;src&quot;,[N,t,&quot;.&quot;,&quot;j&quot;,&quot;s&quot;,&quot;?&quot;,&quot;v&quot;,&quot;=&quot;,T].join(&quot;&quot;)),(i=s.getElementsByTagName(n)[0]).parentNode.insertBefore(v,i)}(&quot;91c80d77&quot;,{root:&quot;exRNzDTQO571&quot;,version:&quot;2022-05-04&quot;,animations:[{elements:{exRNzDTQO572:{transform:{data:{o:{x:325,y:80,type:&quot;corner&quot;},t:{x:-133,y:-20}},keys:{s:[{t:0,v:{x:0,y:0},e:[.39,.575,.565,1]},{t:1e3,v:{x:2,y:2},e:[.39,.575,.565,1]},{t:1800,v:{x:1,y:1},e:[.39,.575,.565,1]},{t:3e3,v:{x:3,y:3}}]}},opacity:[{t:0,v:1},{t:1800,v:1},{t:2700,v:0}]},exRNzDTQO579:{opacity:[{t:0,v:.4},{t:1500,v:.5},{t:2500,v:.45},{t:3e3,v:0}],&quot;stroke-dashoffset&quot;:[{t:0,v:200,e:[.39,.575,.565,1]},{t:3e3,v:0}]},exRNzDTQO5710:{opacity:[{t:10,v:.4},{t:2200,v:.5},{t:2900,v:0}],&quot;stroke-dashoffset&quot;:[{t:0,v:50},{t:3e3,v:150}]}},s:&quot;MDAA1M2IyNTk5YCmFjYTk5OGFiOYTBhNkVhNTUQ5NzE2YTY3NjDc2NzYzNTk5YAklhMGE5OWM5CYWFiYTBIYTZGhNTU5NzE2ODVYzNTlhMGFiOTWNhOTk4YWJhKMGE2YTVhYTUC5NzE2ODYzNTVk5ZGEwYTNhMGzU5NzE2ODYzVNTk5OE9hM2FUiOWNhOWE1OTThhYjljNTk3MKTlkOThZYTNhEYTljNjM1OWFJhYTc5YzljOWKI1OTcxNjhiNFA|&quot;}],options:&quot;MDKAxMDgyMjlENJ2E3YjY4Nzk3DYjI5NDEyOTcBzNzY2ODZiMjOk4NA|&quot;},&quot;https://cdn.svgator.com/ply/&quot;,&quot;__SVGATOR_PLAYER__&quot;,&quot;2022-05-04&quot;,window,document,&quot;script&quot;);</script></svg>