<svg width="50" height="50" viewBox="0 0 50 50" fill="none" xmlns="http://www.w3.org/2000/svg"><path fill-rule="evenodd" clip-rule="evenodd" d="M25 2.6C37.3712 2.6 47.4 12.6288 47.4 25C47.4 37.3712 37.3712 47.4 25 47.4C12.6288 47.4 2.6 37.3712 2.6 25C2.6 12.6288 12.6288 2.6 25 2.6ZM25 0.999999C38.2548 0.999999 49 11.7452 49 25C49 38.2548 38.2548 49 25 49C11.7452 49 1 38.2548 1 25C1 11.7452 11.7452 0.999999 25 0.999999Z" fill="#FDF77A" stroke="#FE7221" stroke-opacity="0.7"/><path fill-rule="evenodd" clip-rule="evenodd" d="M27.7097 7.78084C27.7097 7.42258 28.0292 7.14775 28.3811 7.21483C36.706 8.80154 43 16.1379 43 24.9484C43 34.918 34.9411 43 25 43C23.6845 43 22.402 42.8585 21.1668 42.5898C20.7798 42.5056 20.604 42.063 20.8132 41.7267V41.7267C20.9473 41.511 21.2045 41.4066 21.4529 41.4601C22.5965 41.7059 23.7832 41.8354 25 41.8354C34.2998 41.8354 41.8387 34.2748 41.8387 24.9484C41.8387 16.7196 35.9698 9.86546 28.2008 8.36617C27.9188 8.31176 27.7097 8.06799 27.7097 7.78084V7.78084ZM12.5449 36.313C12.7249 36.5113 12.7564 36.805 12.615 37.0324V37.0324C12.4149 37.3541 11.9665 37.4046 11.7113 37.1246C8.78506 33.9145 7 29.6405 7 24.9484C7 21.4566 7.98862 18.1963 9.70048 15.4337C9.88731 15.1322 10.3004 15.0811 10.5645 15.3179V15.3179C10.7799 15.5109 10.8205 15.8318 10.6687 16.078C9.0789 18.6558 8.16129 21.6947 8.16129 24.9484C8.16129 29.3251 9.82155 33.313 12.5449 36.313ZM23.0645 7.65054C23.0645 7.30306 22.7629 7.03152 22.419 7.08105C19.1172 7.5565 16.1049 8.93059 13.6363 10.9483C13.3654 11.1697 13.3639 11.579 13.6245 11.8126V11.8126C13.8434 12.0089 14.1734 12.0109 14.4014 11.8254C16.6953 9.95987 19.4879 8.68703 22.5475 8.2393C22.8414 8.19629 23.0645 7.94758 23.0645 7.65054V7.65054Z" fill="#FDF77A" stroke="#FE7221" stroke-opacity="0.5"/></svg>